<?xml version="1.0" standalone="no"?>
<!DOCTYPE svg PUBLIC "-//W3C//DTD SVG 1.1//EN" "http://www.w3.org/Graphics/SVG/1.1/DTD/svg11.dtd">
<svg version="1.1" xmlns="http://www.w3.org/2000/svg" viewBox="0 0 883.681254833089 328.2268613642507" width="883.681254833089" height="328.2268613642507"><!-- svg-source:excalidraw --><metadata></metadata><defs><style class="style-fonts">
      </style></defs><g transform="translate(104.151853272804 283.22686120405854) rotate(0 28 17.5)"><text x="0" y="26.712" font-family="Nunito, Segoe UI Emoji" font-size="28px" fill="#343a40" text-anchor="start" style="white-space: pre;" direction="ltr" dominant-baseline="alphabetic">世界</text></g><g transform="translate(413.58324578683954 283.2268613642507) rotate(0 28 17.5)"><text x="0" y="26.712" font-family="Nunito, Segoe UI Emoji" font-size="28px" fill="#343a40" text-anchor="start" style="white-space: pre;" direction="ltr" dominant-baseline="alphabetic">阴间</text></g><g transform="translate(258.8675496485031 10) rotate(0 28 17.5)"><text x="0" y="26.712" font-family="Nunito, Segoe UI Emoji" font-size="28px" fill="#343a40" text-anchor="start" style="white-space: pre;" direction="ltr" dominant-baseline="alphabetic">死亡</text></g><g stroke-linecap="round" transform="translate(319.2973050899652 59.53007894586102) rotate(0 122.42002896966468 104.63907201331537)"><path d="M32 0 C76.81 0, 121.62 0, 212.84 0 M32 0 C89.27 0, 146.54 0, 212.84 0 M212.84 0 C234.17 0, 244.84 10.67, 244.84 32 M212.84 0 C234.17 0, 244.84 10.67, 244.84 32 M244.84 32 C244.84 81.14, 244.84 130.28, 244.84 177.28 M244.84 32 C244.84 63.36, 244.84 94.73, 244.84 177.28 M244.84 177.28 C244.84 198.61, 234.17 209.28, 212.84 209.28 M244.84 177.28 C244.84 198.61, 234.17 209.28, 212.84 209.28 M212.84 209.28 C148.6 209.28, 84.35 209.28, 32 209.28 M212.84 209.28 C162.2 209.28, 111.56 209.28, 32 209.28 M32 209.28 C10.67 209.28, 0 198.61, 0 177.28 M32 209.28 C10.67 209.28, 0 198.61, 0 177.28 M0 177.28 C0 142.66, 0 108.03, 0 32 M0 177.28 C0 119.82, 0 62.35, 0 32 M0 32 C0 10.67, 10.67 0, 32 0 M0 32 C0 10.67, 10.67 0, 32 0" stroke="#ced4da" stroke-width="1" fill="none"></path></g><g stroke-linecap="round" transform="translate(334.52351478041305 173.02314930164545) rotate(0 106.99603001966383 36.17838069727094)"><path d="M2.32 7.32 C2.32 7.32, 2.32 7.32, 2.32 7.32 M2.32 7.32 C2.32 7.32, 2.32 7.32, 2.32 7.32 M0.75 15.23 C5.24 10.07, 9.72 4.9, 13.21 0.89 M0.75 15.23 C4.5 10.91, 8.25 6.59, 13.21 0.89 M0.49 21.62 C6.21 15.05, 11.92 8.47, 18.86 0.49 M0.49 21.62 C4.97 16.47, 9.46 11.31, 18.86 0.49 M0.23 28.02 C5.54 21.91, 10.86 15.79, 23.84 0.85 M0.23 28.02 C5.16 22.34, 10.1 16.66, 23.84 0.85 M0.62 33.67 C11.11 21.6, 21.59 9.54, 29.49 0.46 M0.62 33.67 C9.15 23.86, 17.67 14.05, 29.49 0.46 M0.36 40.06 C9.13 29.97, 17.9 19.88, 34.48 0.82 M0.36 40.06 C9.7 29.32, 19.04 18.57, 34.48 0.82 M0.75 45.71 C15.55 28.68, 30.35 11.66, 40.12 0.42 M0.75 45.71 C9.33 35.84, 17.91 25.98, 40.12 0.42 M0.49 52.1 C18.15 31.79, 35.81 11.48, 45.11 0.78 M0.49 52.1 C15.42 34.93, 30.35 17.75, 45.11 0.78 M0.23 58.5 C13.79 42.9, 27.36 27.3, 50.75 0.39 M0.23 58.5 C20.26 35.46, 40.28 12.43, 50.75 0.39 M1.94 62.64 C17.54 44.69, 33.14 26.74, 55.74 0.75 M1.94 62.64 C21.93 39.64, 41.92 16.64, 55.74 0.75 M4.3 66.01 C25.4 41.75, 46.49 17.48, 61.38 0.35 M4.3 66.01 C18.93 49.19, 33.55 32.36, 61.38 0.35 M6.66 69.39 C24.46 48.92, 42.27 28.44, 66.37 0.71 M6.66 69.39 C24.88 48.44, 43.1 27.48, 66.37 0.71 M10.34 71.26 C23.74 55.85, 37.14 40.43, 72.01 0.32 M10.34 71.26 C26.57 52.59, 42.8 33.92, 72.01 0.32 M15.33 71.62 C33.08 51.2, 50.84 30.77, 77 0.68 M15.33 71.62 C39.78 43.5, 64.23 15.37, 77 0.68 M19.66 72.74 C42.27 46.73, 64.88 20.71, 82.64 0.29 M19.66 72.74 C40.05 49.28, 60.44 25.83, 82.64 0.29 M25.3 72.34 C40.04 55.39, 54.77 38.44, 87.63 0.65 M25.3 72.34 C40.72 54.61, 56.14 36.87, 87.63 0.65 M30.29 72.7 C52.43 47.23, 74.57 21.76, 93.27 0.25 M30.29 72.7 C54.54 44.81, 78.78 16.91, 93.27 0.25 M35.93 72.31 C50.27 55.81, 64.62 39.31, 98.26 0.61 M35.93 72.31 C48.42 57.94, 60.9 43.58, 98.26 0.61 M40.92 72.67 C63.66 46.51, 86.39 20.35, 103.9 0.22 M40.92 72.67 C55.7 55.66, 70.49 38.65, 103.9 0.22 M46.56 72.27 C63.07 53.28, 79.58 34.29, 108.89 0.58 M46.56 72.27 C67.65 48.01, 88.74 23.75, 108.89 0.58 M51.55 72.63 C74.17 46.61, 96.8 20.58, 113.87 0.94 M51.55 72.63 C70.33 51.03, 89.11 29.42, 113.87 0.94 M56.53 72.99 C72.02 55.18, 87.51 37.36, 119.52 0.54 M56.53 72.99 C74.49 52.33, 92.45 31.67, 119.52 0.54 M62.18 72.6 C83.52 48.05, 104.85 23.51, 124.5 0.9 M62.18 72.6 C77.99 54.4, 93.81 36.21, 124.5 0.9 M67.16 72.96 C91.59 44.86, 116.02 16.76, 130.15 0.51 M67.16 72.96 C80.08 58.11, 92.99 43.25, 130.15 0.51 M72.81 72.57 C91.1 51.53, 109.39 30.49, 135.13 0.87 M72.81 72.57 C85.38 58.11, 97.95 43.65, 135.13 0.87 M77.79 72.93 C91.31 57.38, 104.83 41.83, 140.78 0.47 M77.79 72.93 C90.57 58.23, 103.35 43.53, 140.78 0.47 M83.44 72.53 C97.14 56.77, 110.85 41, 145.76 0.83 M83.44 72.53 C101.84 51.36, 120.24 30.19, 145.76 0.83 M88.42 72.89 C111.07 46.84, 133.72 20.79, 151.41 0.44 M88.42 72.89 C108.85 49.4, 129.27 25.9, 151.41 0.44 M94.07 72.5 C114.93 48.5, 135.79 24.5, 156.39 0.8 M94.07 72.5 C114.35 49.16, 134.63 25.83, 156.39 0.8 M99.05 72.86 C122.07 46.38, 145.09 19.9, 162.04 0.4 M99.05 72.86 C121.44 47.1, 143.83 21.35, 162.04 0.4 M104.7 72.46 C120.92 53.8, 137.15 35.13, 167.02 0.76 M104.7 72.46 C124.87 49.26, 145.04 26.05, 167.02 0.76 M109.68 72.82 C127.6 52.22, 145.51 31.61, 172.67 0.37 M109.68 72.82 C123.74 56.66, 137.79 40.49, 172.67 0.37 M115.33 72.43 C129.57 56.04, 143.82 39.66, 177.65 0.73 M115.33 72.43 C137.89 46.47, 160.46 20.51, 177.65 0.73 M120.31 72.79 C137.81 52.66, 155.31 32.53, 183.3 0.34 M120.31 72.79 C145.18 44.18, 170.05 15.58, 183.3 0.34 M125.96 72.39 C143.44 52.28, 160.92 32.17, 188.28 0.7 M125.96 72.39 C147.98 47.06, 170.01 21.72, 188.28 0.7 M130.94 72.75 C144.59 57.06, 158.23 41.36, 193.93 0.3 M130.94 72.75 C148.49 52.57, 166.03 32.39, 193.93 0.3 M136.59 72.36 C153.22 53.23, 169.84 34.1, 198.91 0.66 M136.59 72.36 C152.23 54.36, 167.88 36.36, 198.91 0.66 M141.57 72.72 C158.9 52.79, 176.23 32.85, 203.24 1.78 M141.57 72.72 C155.32 56.9, 169.07 41.09, 203.24 1.78 M147.22 72.32 C161.98 55.34, 176.74 38.36, 206.92 3.65 M147.22 72.32 C162.08 55.23, 176.94 38.13, 206.92 3.65 M152.2 72.68 C173.25 48.47, 194.3 24.25, 210.59 5.51 M152.2 72.68 C170.74 51.37, 189.27 30.05, 210.59 5.51 M157.85 72.29 C173.71 54.05, 189.56 35.81, 212.3 9.65 M157.85 72.29 C178.64 48.38, 199.42 24.46, 212.3 9.65 M162.84 72.65 C175.84 57.69, 188.85 42.72, 214.01 13.78 M162.84 72.65 C182.88 49.59, 202.93 26.52, 214.01 13.78 M167.82 73.01 C180.56 58.36, 193.29 43.71, 213.75 20.18 M167.82 73.01 C182.74 55.85, 197.65 38.7, 213.75 20.18 M173.47 72.62 C184.46 59.96, 195.46 47.31, 214.14 25.82 M173.47 72.62 C182.28 62.48, 191.09 52.34, 214.14 25.82 M178.45 72.98 C188.85 61.01, 199.26 49.04, 213.88 32.22 M178.45 72.98 C192.4 56.93, 206.35 40.88, 213.88 32.22 M184.1 72.58 C190.94 64.71, 197.78 56.83, 214.27 37.86 M184.1 72.58 C193.25 62.05, 202.4 51.52, 214.27 37.86 M189.08 72.94 C195 66.13, 200.93 59.32, 214.01 44.26 M189.08 72.94 C197.69 63.04, 206.3 53.14, 214.01 44.26 M194.73 72.55 C199.66 66.87, 204.59 61.2, 214.41 49.9 M194.73 72.55 C200.7 65.68, 206.67 58.81, 214.41 49.9 M200.37 72.15 C203.34 68.73, 206.32 65.31, 214.15 56.3 M200.37 72.15 C205.55 66.19, 210.74 60.22, 214.15 56.3 M207.32 70.25 C208.32 69.11, 209.31 67.97, 209.95 67.23 M207.32 70.25 C207.87 69.62, 208.42 68.98, 209.95 67.23 M4.59 67.89 C4.59 67.89, 4.59 67.89, 4.59 67.89 M4.59 67.89 C4.59 67.89, 4.59 67.89, 4.59 67.89 M14.76 71.43 C9.93 67.24, 5.11 63.04, 1.17 59.62 M14.76 71.43 C9.94 67.25, 5.13 63.06, 1.17 59.62 M21.15 71.69 C14.03 65.5, 6.91 59.31, 0.78 53.98 M21.15 71.69 C15.67 66.92, 10.18 62.15, 0.78 53.98 M27.55 71.95 C21.28 66.51, 15.02 61.06, 1.14 48.99 M27.55 71.95 C21.95 67.08, 16.34 62.21, 1.14 48.99 M33.95 72.22 C21.81 61.66, 9.67 51.11, 0.74 43.35 M33.95 72.22 C23.05 62.74, 12.15 53.26, 0.74 43.35 M39.59 71.82 C24.63 58.81, 9.66 45.8, 1.1 38.36 M39.59 71.82 C24.32 58.54, 9.05 45.27, 1.1 38.36 M45.99 72.08 C30.74 58.82, 15.49 45.57, 0.71 32.72 M45.99 72.08 C34.14 61.78, 22.29 51.48, 0.71 32.72 M51.63 71.69 C37.29 59.21, 22.94 46.74, 1.07 27.73 M51.63 71.69 C38.32 60.11, 25 48.53, 1.07 27.73 M58.03 71.95 C45.59 61.13, 33.14 50.31, 0.67 22.09 M58.03 71.95 C42.56 58.5, 27.09 45.05, 0.67 22.09 M64.43 72.21 C45.06 55.37, 25.69 38.54, 1.03 17.1 M64.43 72.21 C44.94 55.27, 25.45 38.33, 1.03 17.1 M70.07 71.82 C44.44 49.54, 18.81 27.26, 0.64 11.46 M70.07 71.82 C42.77 48.08, 15.47 24.35, 0.64 11.46 M76.47 72.08 C50.82 49.78, 25.17 27.48, 2.51 7.78 M76.47 72.08 C49.47 48.6, 22.47 25.13, 2.51 7.78 M82.11 71.68 C53.96 47.21, 25.81 22.74, 5.13 4.76 M82.11 71.68 C57.97 50.69, 33.82 29.71, 5.13 4.76 M88.51 71.94 C71.73 57.36, 54.96 42.77, 8.51 2.4 M88.51 71.94 C71.45 57.12, 54.4 42.29, 8.51 2.4 M94.91 72.21 C62.95 44.43, 31 16.65, 12.65 0.7 M94.91 72.21 C65.85 46.95, 36.8 21.69, 12.65 0.7 M100.55 71.81 C83.47 56.96, 66.39 42.12, 17.53 -0.36 M100.55 71.81 C69.9 45.16, 39.25 18.52, 17.53 -0.36 M106.95 72.07 C87.8 55.43, 68.66 38.79, 23.18 -0.75 M106.95 72.07 C83.95 52.08, 60.95 32.08, 23.18 -0.75 M112.59 71.68 C83.07 46.01, 53.54 20.34, 29.57 -0.49 M112.59 71.68 C88.42 50.66, 64.25 29.65, 29.57 -0.49 M118.99 71.94 C94.99 51.07, 70.98 30.21, 35.22 -0.88 M118.99 71.94 C95.44 51.47, 71.89 30.99, 35.22 -0.88 M125.39 72.2 C92.73 43.81, 60.08 15.43, 41.62 -0.62 M125.39 72.2 C93.74 44.69, 62.1 17.18, 41.62 -0.62 M131.03 71.81 C100.12 44.94, 69.22 18.07, 48.01 -0.36 M131.03 71.81 C113.02 56.15, 95.02 40.5, 48.01 -0.36 M137.43 72.07 C108.3 46.75, 79.18 21.43, 53.66 -0.75 M137.43 72.07 C106.58 45.25, 75.73 18.43, 53.66 -0.75 M143.07 71.67 C117.74 49.65, 92.4 27.63, 60.05 -0.49 M143.07 71.67 C112.65 45.22, 82.22 18.77, 60.05 -0.49 M149.47 71.93 C117.78 44.38, 86.08 16.83, 65.7 -0.89 M149.47 71.93 C120.77 46.98, 92.06 22.03, 65.7 -0.89 M155.87 72.2 C129.58 49.35, 103.3 26.5, 72.1 -0.63 M155.87 72.2 C134.49 53.61, 113.12 35.03, 72.1 -0.63 M161.51 71.8 C133.28 47.26, 105.05 22.72, 78.49 -0.37 M161.51 71.8 C134.83 48.61, 108.15 25.41, 78.49 -0.37 M167.91 72.06 C148.12 54.86, 128.34 37.66, 84.14 -0.76 M167.91 72.06 C147.07 53.95, 126.23 35.84, 84.14 -0.76 M173.55 71.67 C156.9 57.19, 140.25 42.72, 90.53 -0.5 M173.55 71.67 C151.49 52.49, 129.42 33.31, 90.53 -0.5 M179.95 71.93 C153.16 48.64, 126.37 25.36, 96.18 -0.89 M179.95 71.93 C150.32 46.17, 120.68 20.41, 96.18 -0.89 M186.35 72.19 C166.49 54.93, 146.63 37.67, 102.57 -0.63 M186.35 72.19 C163.09 51.98, 139.84 31.76, 102.57 -0.63 M191.99 71.8 C173.61 55.82, 155.24 39.85, 108.97 -0.37 M191.99 71.8 C173.95 56.12, 155.91 40.43, 108.97 -0.37 M197.63 71.4 C178.05 54.38, 158.46 37.35, 114.62 -0.76 M197.63 71.4 C164.49 42.59, 131.35 13.79, 114.62 -0.76 M203.28 71.01 C186.24 56.2, 169.21 41.39, 121.01 -0.5 M203.28 71.01 C176.37 47.61, 149.46 24.22, 121.01 -0.5 M207.41 69.3 C183.75 48.73, 160.09 28.16, 126.66 -0.9 M207.41 69.3 C190.15 54.3, 172.89 39.3, 126.66 -0.9 M210.03 66.28 C182.9 42.7, 155.77 19.11, 133.05 -0.64 M210.03 66.28 C193.74 52.12, 177.45 37.96, 133.05 -0.64 M212.66 63.26 C197.02 49.67, 181.39 36.08, 139.45 -0.37 M212.66 63.26 C194.74 47.68, 176.82 32.11, 139.45 -0.37 M213.77 58.93 C190.25 38.49, 166.73 18.04, 145.1 -0.77 M213.77 58.93 C197.31 44.62, 180.84 30.3, 145.1 -0.77 M214.13 53.95 C194.58 36.95, 175.02 19.94, 151.49 -0.51 M214.13 53.95 C191.79 34.52, 169.44 15.09, 151.49 -0.51 M214.49 48.96 C198.93 35.43, 183.37 21.9, 157.14 -0.9 M214.49 48.96 C201.81 37.93, 189.12 26.9, 157.14 -0.9 M214.1 43.31 C203.34 33.96, 192.57 24.6, 163.53 -0.64 M214.1 43.31 C196.17 27.73, 178.24 12.15, 163.53 -0.64 M214.46 38.33 C203.65 28.93, 192.84 19.53, 169.93 -0.38 M214.46 38.33 C205.28 30.35, 196.11 22.37, 169.93 -0.38 M214.06 32.68 C204.48 24.36, 194.9 16.03, 175.57 -0.77 M214.06 32.68 C199.3 19.85, 184.53 7.01, 175.57 -0.77 M213.67 27.04 C201.95 16.85, 190.23 6.66, 181.97 -0.51 M213.67 27.04 C204.62 19.18, 195.58 11.31, 181.97 -0.51 M214.03 22.05 C207.08 16.01, 200.13 9.97, 187.62 -0.91 M214.03 22.05 C205.3 14.47, 196.58 6.88, 187.62 -0.91 M213.64 16.41 C206.28 10.02, 198.93 3.63, 194.01 -0.65 M213.64 16.41 C205.97 9.75, 198.31 3.09, 194.01 -0.65 M212.49 10.11 C210.14 8.07, 207.79 6.03, 201.17 0.27 M212.49 10.11 C209.98 7.93, 207.47 5.75, 201.17 0.27" stroke="#ced4da" stroke-width="0.5" fill="none"></path><path d="M18.09 0 C76.03 0, 133.98 0, 195.9 0 M18.09 0 C61.55 0, 105.02 0, 195.9 0 M195.9 0 C207.96 0, 213.99 6.03, 213.99 18.09 M195.9 0 C207.96 0, 213.99 6.03, 213.99 18.09 M213.99 18.09 C213.99 28.84, 213.99 39.59, 213.99 54.27 M213.99 18.09 C213.99 28.24, 213.99 38.39, 213.99 54.27 M213.99 54.27 C213.99 66.33, 207.96 72.36, 195.9 72.36 M213.99 54.27 C213.99 66.33, 207.96 72.36, 195.9 72.36 M195.9 72.36 C142.54 72.36, 89.18 72.36, 18.09 72.36 M195.9 72.36 C160.08 72.36, 124.25 72.36, 18.09 72.36 M18.09 72.36 C6.03 72.36, 0 66.33, 0 54.27 M18.09 72.36 C6.03 72.36, 0 66.33, 0 54.27 M0 54.27 C0 44.32, 0 34.37, 0 18.09 M0 54.27 C0 46.05, 0 37.84, 0 18.09 M0 18.09 C0 6.03, 6.03 0, 18.09 0 M0 18.09 C0 6.03, 6.03 0, 18.09 0" stroke="#ced4da" stroke-width="1" fill="none"></path></g><g transform="translate(385.51954480007686 191.70152999891639) rotate(0 56 17.5)"><text x="56" y="26.712" font-family="Nunito, Segoe UI Emoji" font-size="28px" fill="#c2255c" text-anchor="middle" style="white-space: pre;" direction="ltr" dominant-baseline="alphabetic">临时地狱</text></g><g stroke-linecap="round" transform="translate(334.65091791589145 82.81131021897312) rotate(0 106.99603001966378 36.17838069727094)"><path d="M2.32 7.32 C2.32 7.32, 2.32 7.32, 2.32 7.32 M2.32 7.32 C2.32 7.32, 2.32 7.32, 2.32 7.32 M0.75 15.23 C3.77 11.76, 6.78 8.29, 13.21 0.89 M0.75 15.23 C4.76 10.61, 8.77 6, 13.21 0.89 M0.49 21.62 C7.19 13.91, 13.89 6.2, 18.86 0.49 M0.49 21.62 C5.25 16.15, 10.01 10.68, 18.86 0.49 M0.23 28.02 C8.77 18.2, 17.31 8.37, 23.84 0.85 M0.23 28.02 C5.5 21.95, 10.78 15.88, 23.84 0.85 M0.62 33.67 C6.93 26.41, 13.24 19.15, 29.49 0.46 M0.62 33.67 C10.71 22.06, 20.8 10.45, 29.49 0.46 M0.36 40.06 C11.36 27.41, 22.36 14.75, 34.48 0.82 M0.36 40.06 C7.59 31.75, 14.82 23.43, 34.48 0.82 M0.75 45.71 C13.73 30.77, 26.71 15.84, 40.12 0.42 M0.75 45.71 C10.84 34.1, 20.93 22.5, 40.12 0.42 M0.49 52.1 C10.96 40.06, 21.42 28.03, 45.11 0.78 M0.49 52.1 C10.8 40.24, 21.11 28.38, 45.11 0.78 M0.23 58.5 C12.26 44.66, 24.3 30.82, 50.75 0.39 M0.23 58.5 C11.27 45.8, 22.31 33.11, 50.75 0.39 M1.94 62.64 C13.63 49.19, 25.31 35.75, 55.74 0.75 M1.94 62.64 C16.23 46.19, 30.52 29.75, 55.74 0.75 M4.3 66.01 C26.72 40.22, 49.14 14.43, 61.38 0.35 M4.3 66.01 C16.64 51.82, 28.97 37.63, 61.38 0.35 M6.66 69.39 C30.49 41.99, 54.31 14.58, 66.37 0.71 M6.66 69.39 C27.01 45.98, 47.36 22.57, 66.37 0.71 M10.34 71.26 C32.05 46.29, 53.75 21.32, 72.01 0.32 M10.34 71.26 C33.14 45.03, 55.94 18.8, 72.01 0.32 M15.33 71.62 C34.94 49.05, 54.56 26.49, 77 0.68 M15.33 71.62 C35.22 48.74, 55.11 25.86, 77 0.68 M19.66 72.74 C43.8 44.96, 67.95 17.18, 82.64 0.29 M19.66 72.74 C41.1 48.07, 62.55 23.4, 82.64 0.29 M25.3 72.34 C45.36 49.27, 65.41 26.2, 87.63 0.65 M25.3 72.34 C45.07 49.6, 64.84 26.85, 87.63 0.65 M30.29 72.7 C46.93 53.56, 63.56 34.42, 93.27 0.25 M30.29 72.7 C51.09 48.78, 71.89 24.85, 93.27 0.25 M35.93 72.31 C58.8 46, 81.67 19.69, 98.26 0.61 M35.93 72.31 C52.88 52.81, 69.84 33.3, 98.26 0.61 M40.92 72.67 C58.6 52.33, 76.29 31.98, 103.9 0.22 M40.92 72.67 C58.64 52.28, 76.36 31.9, 103.9 0.22 M46.56 72.27 C60.25 56.53, 73.93 40.78, 108.89 0.58 M46.56 72.27 C69.91 45.41, 93.26 18.55, 108.89 0.58 M51.55 72.63 C65.82 56.21, 80.1 39.79, 113.87 0.94 M51.55 72.63 C68.81 52.78, 86.07 32.92, 113.87 0.94 M56.53 72.99 C72.62 54.49, 88.71 35.98, 119.52 0.54 M56.53 72.99 C72.5 54.63, 88.47 36.26, 119.52 0.54 M62.18 72.6 C75.53 57.24, 88.88 41.88, 124.5 0.9 M62.18 72.6 C83.41 48.17, 104.65 23.75, 124.5 0.9 M67.16 72.96 C83.49 54.18, 99.82 35.39, 130.15 0.51 M67.16 72.96 C90.94 45.6, 114.72 18.25, 130.15 0.51 M72.81 72.57 C88.45 54.57, 104.09 36.58, 135.13 0.87 M72.81 72.57 C87.57 55.58, 102.33 38.6, 135.13 0.87 M77.79 72.93 C91.99 56.59, 106.19 40.26, 140.78 0.47 M77.79 72.93 C93.95 54.34, 110.1 35.76, 140.78 0.47 M83.44 72.53 C99.84 53.67, 116.23 34.8, 145.76 0.83 M83.44 72.53 C100.29 53.14, 117.15 33.75, 145.76 0.83 M88.42 72.89 C110.94 46.99, 133.46 21.08, 151.41 0.44 M88.42 72.89 C103.57 55.47, 118.71 38.05, 151.41 0.44 M94.07 72.5 C111.77 52.13, 129.48 31.76, 156.39 0.8 M94.07 72.5 C111.95 51.93, 129.83 31.36, 156.39 0.8 M99.05 72.86 C115.98 53.39, 132.9 33.92, 162.04 0.4 M99.05 72.86 C119.23 49.65, 139.41 26.44, 162.04 0.4 M104.7 72.46 C120.69 54.06, 136.69 35.66, 167.02 0.76 M104.7 72.46 C121.68 52.92, 138.67 33.39, 167.02 0.76 M109.68 72.82 C133.7 45.2, 157.72 17.57, 172.67 0.37 M109.68 72.82 C130.32 49.08, 150.96 25.34, 172.67 0.37 M115.33 72.43 C129.84 55.73, 144.35 39.04, 177.65 0.73 M115.33 72.43 C137.39 47.05, 159.46 21.66, 177.65 0.73 M120.31 72.79 C140.92 49.09, 161.52 25.39, 183.3 0.34 M120.31 72.79 C141.39 48.54, 162.46 24.3, 183.3 0.34 M125.96 72.39 C149.28 45.56, 172.6 18.74, 188.28 0.7 M125.96 72.39 C150.82 43.79, 175.68 15.19, 188.28 0.7 M130.94 72.75 C152.82 47.59, 174.69 22.43, 193.93 0.3 M130.94 72.75 C146.93 54.36, 162.92 35.97, 193.93 0.3 M136.59 72.36 C158.5 47.16, 180.4 21.96, 198.91 0.66 M136.59 72.36 C150 56.93, 163.41 41.5, 198.91 0.66 M141.57 72.72 C159.61 51.97, 177.64 31.23, 203.24 1.78 M141.57 72.72 C156.3 55.78, 171.02 38.85, 203.24 1.78 M147.22 72.32 C167.82 48.63, 188.41 24.94, 206.92 3.65 M147.22 72.32 C168.2 48.18, 189.19 24.04, 206.92 3.65 M152.2 72.68 C165.19 57.75, 178.17 42.82, 210.59 5.51 M152.2 72.68 C168.74 53.66, 185.28 34.63, 210.59 5.51 M157.85 72.29 C171.15 56.99, 184.45 41.68, 212.3 9.65 M157.85 72.29 C174.04 53.67, 190.23 35.04, 212.3 9.65 M162.84 72.65 C173.4 60.5, 183.96 48.35, 214.01 13.78 M162.84 72.65 C174.2 59.58, 185.57 46.5, 214.01 13.78 M167.82 73.01 C179.23 59.89, 190.64 46.76, 213.75 20.18 M167.82 73.01 C180.79 58.09, 193.76 43.17, 213.75 20.18 M173.47 72.62 C186.61 57.49, 199.76 42.37, 214.14 25.82 M173.47 72.62 C186.91 57.15, 200.35 41.69, 214.14 25.82 M178.45 72.98 C187.86 62.15, 197.27 51.33, 213.88 32.22 M178.45 72.98 C188.28 61.67, 198.11 50.37, 213.88 32.22 M184.1 72.58 C191.97 63.52, 199.84 54.47, 214.27 37.86 M184.1 72.58 C193.88 61.32, 203.66 50.07, 214.27 37.86 M189.08 72.94 C196.9 63.95, 204.72 54.95, 214.01 44.26 M189.08 72.94 C198.89 61.66, 208.7 50.38, 214.01 44.26 M194.73 72.55 C200.96 65.37, 207.19 58.2, 214.41 49.9 M194.73 72.55 C201.81 64.4, 208.89 56.25, 214.41 49.9 M200.37 72.15 C204.77 67.09, 209.18 62.02, 214.15 56.3 M200.37 72.15 C204.26 67.68, 208.15 63.2, 214.15 56.3 M207.32 70.25 C208.37 69.05, 209.41 67.85, 209.95 67.23 M207.32 70.25 C207.94 69.54, 208.55 68.83, 209.95 67.23 M4.59 67.89 C4.59 67.89, 4.59 67.89, 4.59 67.89 M4.59 67.89 C4.59 67.89, 4.59 67.89, 4.59 67.89 M14.76 71.43 C11.77 68.84, 8.79 66.24, 1.17 59.62 M14.76 71.43 C9.51 66.87, 4.27 62.32, 1.17 59.62 M21.15 71.69 C15.84 67.07, 10.53 62.45, 0.78 53.98 M21.15 71.69 C15.26 66.57, 9.37 61.45, 0.78 53.98 M27.55 71.95 C19.4 64.87, 11.26 57.79, 1.14 48.99 M27.55 71.95 C19.83 65.24, 12.1 58.52, 1.14 48.99 M33.95 72.22 C20.77 60.76, 7.58 49.3, 0.74 43.35 M33.95 72.22 C26.85 66.04, 19.75 59.87, 0.74 43.35 M39.59 71.82 C24.24 58.48, 8.89 45.13, 1.1 38.36 M39.59 71.82 C29.08 62.68, 18.56 53.54, 1.1 38.36 M45.99 72.08 C32.71 60.54, 19.43 48.99, 0.71 32.72 M45.99 72.08 C31.28 59.3, 16.58 46.51, 0.71 32.72 M51.63 71.69 C39.74 61.35, 27.85 51.01, 1.07 27.73 M51.63 71.69 C37.09 59.05, 22.55 46.41, 1.07 27.73 M58.03 71.95 C45.2 60.8, 32.37 49.65, 0.67 22.09 M58.03 71.95 C36.41 53.15, 14.78 34.35, 0.67 22.09 M64.43 72.21 C40.91 51.76, 17.38 31.31, 1.03 17.1 M64.43 72.21 C43.13 53.7, 21.83 35.18, 1.03 17.1 M70.07 71.82 C44.28 49.4, 18.49 26.98, 0.64 11.46 M70.07 71.82 C51.59 55.75, 33.12 39.69, 0.64 11.46 M76.47 72.08 C49.14 48.32, 21.8 24.56, 2.51 7.78 M76.47 72.08 C57.3 55.41, 38.13 38.75, 2.51 7.78 M82.11 71.68 C64.45 56.33, 46.8 40.98, 5.13 4.76 M82.11 71.68 C64.54 56.41, 46.97 41.13, 5.13 4.76 M88.51 71.94 C72.26 57.82, 56.02 43.7, 8.51 2.4 M88.51 71.94 C61.41 48.38, 34.3 24.82, 8.51 2.4 M94.91 72.21 C62.04 43.63, 29.17 15.06, 12.65 0.7 M94.91 72.21 C75.15 55.03, 55.39 37.85, 12.65 0.7 M100.55 71.81 C79.51 53.52, 58.48 35.23, 17.53 -0.36 M100.55 71.81 C75.91 50.39, 51.27 28.97, 17.53 -0.36 M106.95 72.07 C73.99 43.42, 41.02 14.76, 23.18 -0.75 M106.95 72.07 C88.57 56.09, 70.19 40.12, 23.18 -0.75 M112.59 71.68 C86.71 49.18, 60.83 26.69, 29.57 -0.49 M112.59 71.68 C88.01 50.31, 63.43 28.94, 29.57 -0.49 M118.99 71.94 C99.56 55.05, 80.13 38.16, 35.22 -0.88 M118.99 71.94 C100.23 55.63, 81.47 39.33, 35.22 -0.88 M125.39 72.2 C93.68 44.63, 61.96 17.07, 41.62 -0.62 M125.39 72.2 C96.91 47.45, 68.43 22.69, 41.62 -0.62 M131.03 71.81 C110.67 54.11, 90.31 36.41, 48.01 -0.36 M131.03 71.81 C110.07 53.59, 89.12 35.37, 48.01 -0.36 M137.43 72.07 C115.33 52.86, 93.23 33.65, 53.66 -0.75 M137.43 72.07 C114.61 52.24, 91.8 32.4, 53.66 -0.75 M143.07 71.67 C120.42 51.98, 97.76 32.29, 60.05 -0.49 M143.07 71.67 C122.79 54.05, 102.51 36.42, 60.05 -0.49 M149.47 71.93 C117.07 43.77, 84.67 15.61, 65.7 -0.89 M149.47 71.93 C117.81 44.41, 86.15 16.89, 65.7 -0.89 M155.87 72.2 C133.76 52.98, 111.65 33.76, 72.1 -0.63 M155.87 72.2 C132.47 51.85, 109.07 31.51, 72.1 -0.63 M161.51 71.8 C130.29 44.66, 99.07 17.52, 78.49 -0.37 M161.51 71.8 C129.8 44.24, 98.09 16.67, 78.49 -0.37 M167.91 72.06 C144.73 51.91, 121.55 31.77, 84.14 -0.76 M167.91 72.06 C136.23 44.52, 104.55 16.98, 84.14 -0.76 M173.55 71.67 C151.15 52.2, 128.75 32.73, 90.53 -0.5 M173.55 71.67 C152.77 53.6, 131.99 35.54, 90.53 -0.5 M179.95 71.93 C156.59 51.62, 133.23 31.31, 96.18 -0.89 M179.95 71.93 C154.65 49.94, 129.35 27.95, 96.18 -0.89 M186.35 72.19 C159.93 49.23, 133.51 26.26, 102.57 -0.63 M186.35 72.19 C153.72 43.83, 121.1 15.47, 102.57 -0.63 M191.99 71.8 C163.13 46.71, 134.27 21.63, 108.97 -0.37 M191.99 71.8 C162.72 46.35, 133.45 20.9, 108.97 -0.37 M197.63 71.4 C166.96 44.73, 136.28 18.07, 114.62 -0.76 M197.63 71.4 C177.17 53.61, 156.71 35.83, 114.62 -0.76 M203.28 71.01 C181.12 51.75, 158.96 32.48, 121.01 -0.5 M203.28 71.01 C172.64 44.38, 142 17.74, 121.01 -0.5 M207.41 69.3 C183.31 48.35, 159.21 27.4, 126.66 -0.9 M207.41 69.3 C182.44 47.59, 157.47 25.89, 126.66 -0.9 M210.03 66.28 C183.86 43.53, 157.69 20.78, 133.05 -0.64 M210.03 66.28 C183.52 43.23, 157 20.18, 133.05 -0.64 M212.66 63.26 C185.01 39.23, 157.36 15.19, 139.45 -0.37 M212.66 63.26 C190.26 43.79, 167.86 24.32, 139.45 -0.37 M213.77 58.93 C188.73 37.16, 163.68 15.39, 145.1 -0.77 M213.77 58.93 C186.82 35.5, 159.86 12.06, 145.1 -0.77 M214.13 53.95 C195.83 38.04, 177.53 22.13, 151.49 -0.51 M214.13 53.95 C201.25 42.74, 188.36 31.54, 151.49 -0.51 M214.49 48.96 C199.69 36.09, 184.89 23.22, 157.14 -0.9 M214.49 48.96 C192.65 29.97, 170.81 10.98, 157.14 -0.9 M214.1 43.31 C197.1 28.54, 180.11 13.77, 163.53 -0.64 M214.1 43.31 C203.07 33.73, 192.04 24.14, 163.53 -0.64 M214.46 38.33 C203.59 28.88, 192.71 19.43, 169.93 -0.38 M214.46 38.33 C200.46 26.16, 186.47 14, 169.93 -0.38 M214.06 32.68 C205.86 25.55, 197.65 18.41, 175.57 -0.77 M214.06 32.68 C198.92 19.52, 183.78 6.36, 175.57 -0.77 M213.67 27.04 C205.55 19.98, 197.42 12.92, 181.97 -0.51 M213.67 27.04 C202.94 17.71, 192.21 8.39, 181.97 -0.51 M214.03 22.05 C207.78 16.62, 201.53 11.19, 187.62 -0.91 M214.03 22.05 C208.15 16.95, 202.28 11.84, 187.62 -0.91 M213.64 16.41 C207.02 10.66, 200.41 4.91, 194.01 -0.65 M213.64 16.41 C206.97 10.62, 200.31 4.82, 194.01 -0.65 M212.49 10.11 C208.77 6.88, 205.05 3.65, 201.17 0.27 M212.49 10.11 C209.81 7.78, 207.12 5.45, 201.17 0.27" stroke="#ced4da" stroke-width="0.5" fill="none"></path><path d="M18.09 0 C71.11 0, 124.13 0, 195.9 0 M18.09 0 C72.35 0, 126.61 0, 195.9 0 M195.9 0 C207.96 0, 213.99 6.03, 213.99 18.09 M195.9 0 C207.96 0, 213.99 6.03, 213.99 18.09 M213.99 18.09 C213.99 25.72, 213.99 33.36, 213.99 54.27 M213.99 18.09 C213.99 27.04, 213.99 35.99, 213.99 54.27 M213.99 54.27 C213.99 66.33, 207.96 72.36, 195.9 72.36 M213.99 54.27 C213.99 66.33, 207.96 72.36, 195.9 72.36 M195.9 72.36 C146.16 72.36, 96.41 72.36, 18.09 72.36 M195.9 72.36 C125.23 72.36, 54.56 72.36, 18.09 72.36 M18.09 72.36 C6.03 72.36, 0 66.33, 0 54.27 M18.09 72.36 C6.03 72.36, 0 66.33, 0 54.27 M0 54.27 C0 46.2, 0 38.12, 0 18.09 M0 54.27 C0 43.65, 0 33.03, 0 18.09 M0 18.09 C0 6.03, 6.03 0, 18.09 0 M0 18.09 C0 6.03, 6.03 0, 18.09 0" stroke="#ced4da" stroke-width="1" fill="none"></path></g><g transform="translate(385.64694793555526 101.48969091624406) rotate(0 56 17.5)"><text x="56" y="26.712" font-family="Nunito, Segoe UI Emoji" font-size="28px" fill="#1971c2" text-anchor="middle" style="white-space: pre;" direction="ltr" dominant-baseline="alphabetic">临时天堂</text></g><g stroke-linecap="round" transform="translate(628.8411968937596 59.53007894586102) rotate(0 122.42002896966471 104.63907201331537)"><path d="M32 0 C87.88 0, 143.76 0, 212.84 0 M32 0 C100.1 0, 168.2 0, 212.84 0 M212.84 0 C234.17 0, 244.84 10.67, 244.84 32 M212.84 0 C234.17 0, 244.84 10.67, 244.84 32 M244.84 32 C244.84 69.85, 244.84 107.7, 244.84 177.28 M244.84 32 C244.84 65.62, 244.84 99.24, 244.84 177.28 M244.84 177.28 C244.84 198.61, 234.17 209.28, 212.84 209.28 M244.84 177.28 C244.84 198.61, 234.17 209.28, 212.84 209.28 M212.84 209.28 C145.97 209.28, 79.1 209.28, 32 209.28 M212.84 209.28 C161.23 209.28, 109.62 209.28, 32 209.28 M32 209.28 C10.67 209.28, 0 198.61, 0 177.28 M32 209.28 C10.67 209.28, 0 198.61, 0 177.28 M0 177.28 C0 137.63, 0 97.97, 0 32 M0 177.28 C0 143.68, 0 110.07, 0 32 M0 32 C0 10.67, 10.67 0, 32 0 M0 32 C0 10.67, 10.67 0, 32 0" stroke="#ced4da" stroke-width="1" fill="none"></path></g><g stroke-linecap="round" transform="translate(644.2014942317833 173.12003963357148) rotate(0 106.9960300196638 36.17838069727094)"><path d="M2.32 7.32 C2.32 7.32, 2.32 7.32, 2.32 7.32 M2.32 7.32 C2.32 7.32, 2.32 7.32, 2.32 7.32 M0.75 15.23 C4.68 10.7, 8.61 6.18, 13.21 0.89 M0.75 15.23 C5.6 9.64, 10.46 4.06, 13.21 0.89 M0.49 21.62 C6.87 14.28, 13.26 6.93, 18.86 0.49 M0.49 21.62 C6.97 14.17, 13.44 6.72, 18.86 0.49 M0.23 28.02 C8.95 17.98, 17.68 7.94, 23.84 0.85 M0.23 28.02 C6.05 21.33, 11.87 14.63, 23.84 0.85 M0.62 33.67 C8.4 24.72, 16.17 15.78, 29.49 0.46 M0.62 33.67 C11.37 21.3, 22.12 8.93, 29.49 0.46 M0.36 40.06 C10.54 28.35, 20.72 16.64, 34.48 0.82 M0.36 40.06 C10.91 27.93, 21.46 15.79, 34.48 0.82 M0.75 45.71 C14.14 30.31, 27.52 14.92, 40.12 0.42 M0.75 45.71 C14.32 30.11, 27.88 14.51, 40.12 0.42 M0.49 52.1 C17.34 32.72, 34.19 13.34, 45.11 0.78 M0.49 52.1 C14.14 36.4, 27.79 20.7, 45.11 0.78 M0.23 58.5 C18.66 37.31, 37.08 16.11, 50.75 0.39 M0.23 58.5 C20.06 35.69, 39.89 12.88, 50.75 0.39 M1.94 62.64 C17.66 44.55, 33.37 26.47, 55.74 0.75 M1.94 62.64 C13.01 49.9, 24.07 37.17, 55.74 0.75 M4.3 66.01 C19.03 49.07, 33.77 32.12, 61.38 0.35 M4.3 66.01 C26.04 41.01, 47.77 16.01, 61.38 0.35 M6.66 69.39 C26.73 46.31, 46.8 23.22, 66.37 0.71 M6.66 69.39 C19.69 54.41, 32.71 39.43, 66.37 0.71 M10.34 71.26 C25.4 53.94, 40.46 36.62, 72.01 0.32 M10.34 71.26 C29.72 48.97, 49.1 26.67, 72.01 0.32 M15.33 71.62 C28.48 56.49, 41.63 41.36, 77 0.68 M15.33 71.62 C39.59 43.71, 63.85 15.8, 77 0.68 M19.66 72.74 C35.8 54.17, 51.94 35.6, 82.64 0.29 M19.66 72.74 C40.98 48.21, 62.3 23.69, 82.64 0.29 M25.3 72.34 C40.05 55.38, 54.79 38.41, 87.63 0.65 M25.3 72.34 C39.17 56.39, 53.03 40.44, 87.63 0.65 M30.29 72.7 C51.52 48.28, 72.75 23.86, 93.27 0.25 M30.29 72.7 C51.68 48.09, 73.07 23.48, 93.27 0.25 M35.93 72.31 C56.41 48.75, 76.89 25.19, 98.26 0.61 M35.93 72.31 C50.69 55.33, 65.45 38.35, 98.26 0.61 M40.92 72.67 C55.95 55.37, 70.99 38.07, 103.9 0.22 M40.92 72.67 C62.62 47.71, 84.32 22.74, 103.9 0.22 M46.56 72.27 C60.33 56.43, 74.1 40.59, 108.89 0.58 M46.56 72.27 C59.55 57.33, 72.55 42.38, 108.89 0.58 M51.55 72.63 C65.43 56.66, 79.31 40.7, 113.87 0.94 M51.55 72.63 C71.53 49.65, 91.51 26.66, 113.87 0.94 M56.53 72.99 C72.59 54.53, 88.64 36.06, 119.52 0.54 M56.53 72.99 C78.6 47.62, 100.66 22.24, 119.52 0.54 M62.18 72.6 C78.37 53.97, 94.57 35.33, 124.5 0.9 M62.18 72.6 C85.6 45.65, 109.03 18.7, 124.5 0.9 M67.16 72.96 C91.15 45.36, 115.14 17.77, 130.15 0.51 M67.16 72.96 C87.04 50.1, 106.91 27.23, 130.15 0.51 M72.81 72.57 C87.17 56.05, 101.53 39.53, 135.13 0.87 M72.81 72.57 C95.18 46.82, 117.56 21.08, 135.13 0.87 M77.79 72.93 C100.4 46.92, 123.01 20.91, 140.78 0.47 M77.79 72.93 C102.88 44.07, 127.97 15.21, 140.78 0.47 M83.44 72.53 C103.63 49.31, 123.82 26.08, 145.76 0.83 M83.44 72.53 C99.6 53.93, 115.77 35.33, 145.76 0.83 M88.42 72.89 C110.99 46.93, 133.56 20.97, 151.41 0.44 M88.42 72.89 C109.41 48.75, 130.39 24.61, 151.41 0.44 M94.07 72.5 C108.99 55.33, 123.91 38.17, 156.39 0.8 M94.07 72.5 C106.96 57.66, 119.86 42.82, 156.39 0.8 M99.05 72.86 C121.58 46.94, 144.1 21.03, 162.04 0.4 M99.05 72.86 C117.66 51.46, 136.26 30.05, 162.04 0.4 M104.7 72.46 C128.71 44.84, 152.72 17.22, 167.02 0.76 M104.7 72.46 C121.66 52.95, 138.62 33.44, 167.02 0.76 M109.68 72.82 C131.41 47.83, 153.14 22.84, 172.67 0.37 M109.68 72.82 C128.63 51.03, 147.57 29.24, 172.67 0.37 M115.33 72.43 C132.72 52.42, 150.11 32.41, 177.65 0.73 M115.33 72.43 C131.92 53.34, 148.52 34.25, 177.65 0.73 M120.31 72.79 C140.32 49.77, 160.33 26.75, 183.3 0.34 M120.31 72.79 C133.28 57.87, 146.25 42.95, 183.3 0.34 M125.96 72.39 C147.65 47.44, 169.34 22.49, 188.28 0.7 M125.96 72.39 C147.21 47.94, 168.47 23.49, 188.28 0.7 M130.94 72.75 C148.75 52.27, 166.55 31.8, 193.93 0.3 M130.94 72.75 C150.33 50.45, 169.72 28.14, 193.93 0.3 M136.59 72.36 C157.07 48.8, 177.55 25.24, 198.91 0.66 M136.59 72.36 C160.83 44.47, 185.07 16.59, 198.91 0.66 M141.57 72.72 C157.36 54.56, 173.14 36.4, 203.24 1.78 M141.57 72.72 C162.81 48.29, 184.05 23.86, 203.24 1.78 M147.22 72.32 C163.14 54.01, 179.06 35.7, 206.92 3.65 M147.22 72.32 C161.73 55.63, 176.23 38.95, 206.92 3.65 M152.2 72.68 C167.57 55.01, 182.94 37.33, 210.59 5.51 M152.2 72.68 C169.36 52.95, 186.51 33.22, 210.59 5.51 M157.85 72.29 C175.13 52.41, 192.41 32.53, 212.3 9.65 M157.85 72.29 C172.93 54.94, 188.01 37.59, 212.3 9.65 M162.84 72.65 C180.19 52.68, 197.55 32.72, 214.01 13.78 M162.84 72.65 C182.03 50.56, 201.23 28.48, 214.01 13.78 M167.82 73.01 C183.68 54.76, 199.54 36.52, 213.75 20.18 M167.82 73.01 C177.24 62.18, 186.65 51.35, 213.75 20.18 M173.47 72.62 C186.82 57.25, 200.17 41.89, 214.14 25.82 M173.47 72.62 C183.56 61.01, 193.65 49.4, 214.14 25.82 M178.45 72.98 C189.95 59.74, 201.46 46.51, 213.88 32.22 M178.45 72.98 C188.45 61.47, 198.45 49.97, 213.88 32.22 M184.1 72.58 C192.67 62.71, 201.25 52.85, 214.27 37.86 M184.1 72.58 C190.52 65.19, 196.94 57.8, 214.27 37.86 M189.08 72.94 C197.52 63.23, 205.96 53.52, 214.01 44.26 M189.08 72.94 C196.66 64.22, 204.24 55.5, 214.01 44.26 M194.73 72.55 C200.04 66.44, 205.35 60.33, 214.41 49.9 M194.73 72.55 C198.86 67.79, 203 63.03, 214.41 49.9 M200.37 72.15 C205.6 66.13, 210.83 60.11, 214.15 56.3 M200.37 72.15 C203.22 68.87, 206.06 65.6, 214.15 56.3 M207.32 70.25 C208.26 69.17, 209.2 68.09, 209.95 67.23 M207.32 70.25 C207.91 69.58, 208.49 68.91, 209.95 67.23 M4.59 67.89 C4.59 67.89, 4.59 67.89, 4.59 67.89 M4.59 67.89 C4.59 67.89, 4.59 67.89, 4.59 67.89 M14.76 71.43 C11.64 68.72, 8.52 66.01, 1.17 59.62 M14.76 71.43 C11.09 68.25, 7.43 65.06, 1.17 59.62 M21.15 71.69 C15.82 67.05, 10.48 62.41, 0.78 53.98 M21.15 71.69 C14.99 66.34, 8.83 60.98, 0.78 53.98 M27.55 71.95 C17.6 63.3, 7.65 54.65, 1.14 48.99 M27.55 71.95 C21.84 66.99, 16.12 62.02, 1.14 48.99 M33.95 72.22 C26.14 65.42, 18.33 58.63, 0.74 43.35 M33.95 72.22 C24.95 64.39, 15.96 56.57, 0.74 43.35 M39.59 71.82 C28.07 61.8, 16.54 51.78, 1.1 38.36 M39.59 71.82 C25.52 59.59, 11.45 47.35, 1.1 38.36 M45.99 72.08 C32.38 60.25, 18.77 48.42, 0.71 32.72 M45.99 72.08 C33.71 61.4, 21.42 50.73, 0.71 32.72 M51.63 71.69 C36.07 58.16, 20.5 44.63, 1.07 27.73 M51.63 71.69 C38.42 60.2, 25.21 48.72, 1.07 27.73 M58.03 71.95 C35.24 52.13, 12.44 32.32, 0.67 22.09 M58.03 71.95 C38.38 54.86, 18.72 37.77, 0.67 22.09 M64.43 72.21 C44.07 54.52, 23.72 36.82, 1.03 17.1 M64.43 72.21 C46.18 56.35, 27.93 40.48, 1.03 17.1 M70.07 71.82 C44.04 49.19, 18.02 26.56, 0.64 11.46 M70.07 71.82 C51.66 55.81, 33.25 39.8, 0.64 11.46 M76.47 72.08 C56.65 54.85, 36.84 37.63, 2.51 7.78 M76.47 72.08 C56.45 54.67, 36.42 37.27, 2.51 7.78 M82.11 71.68 C52 45.5, 21.88 19.32, 5.13 4.76 M82.11 71.68 C54.46 47.64, 26.8 23.6, 5.13 4.76 M88.51 71.94 C65.6 52.03, 42.7 32.12, 8.51 2.4 M88.51 71.94 C66.46 52.77, 44.4 33.6, 8.51 2.4 M94.91 72.21 C69.06 49.74, 43.22 27.27, 12.65 0.7 M94.91 72.21 C71.37 51.74, 47.83 31.28, 12.65 0.7 M100.55 71.81 C73.67 48.45, 46.8 25.08, 17.53 -0.36 M100.55 71.81 C83.18 56.71, 65.8 41.6, 17.53 -0.36 M106.95 72.07 C80.07 48.7, 53.19 25.34, 23.18 -0.75 M106.95 72.07 C86.21 54.04, 65.46 36.01, 23.18 -0.75 M112.59 71.68 C84.62 47.36, 56.64 23.04, 29.57 -0.49 M112.59 71.68 C94.44 55.9, 76.29 40.12, 29.57 -0.49 M118.99 71.94 C94.04 50.25, 69.1 28.57, 35.22 -0.88 M118.99 71.94 C86.65 43.82, 54.3 15.7, 35.22 -0.88 M125.39 72.2 C100.91 50.93, 76.44 29.65, 41.62 -0.62 M125.39 72.2 C100.98 50.98, 76.56 29.76, 41.62 -0.62 M131.03 71.81 C111.04 54.43, 91.06 37.06, 48.01 -0.36 M131.03 71.81 C99.1 44.05, 67.16 16.28, 48.01 -0.36 M137.43 72.07 C106.87 45.5, 76.3 18.93, 53.66 -0.75 M137.43 72.07 C115.98 53.42, 94.53 34.77, 53.66 -0.75 M143.07 71.67 C121.9 53.27, 100.73 34.87, 60.05 -0.49 M143.07 71.67 C120.91 52.4, 98.74 33.13, 60.05 -0.49 M149.47 71.93 C120.99 47.18, 92.52 22.43, 65.7 -0.89 M149.47 71.93 C117.51 44.15, 85.55 16.37, 65.7 -0.89 M155.87 72.2 C126.12 46.34, 96.37 20.48, 72.1 -0.63 M155.87 72.2 C122.58 43.26, 89.28 14.31, 72.1 -0.63 M161.51 71.8 C143.94 56.52, 126.36 41.25, 78.49 -0.37 M161.51 71.8 C130.17 44.56, 98.84 17.32, 78.49 -0.37 M167.91 72.06 C145.7 52.76, 123.5 33.45, 84.14 -0.76 M167.91 72.06 C144.38 51.61, 120.86 31.16, 84.14 -0.76 M173.55 71.67 C141.69 43.97, 109.82 16.27, 90.53 -0.5 M173.55 71.67 C140.83 43.23, 108.12 14.79, 90.53 -0.5 M179.95 71.93 C161.67 56.04, 143.38 40.14, 96.18 -0.89 M179.95 71.93 C149.56 45.51, 119.17 19.09, 96.18 -0.89 M186.35 72.19 C163.78 52.58, 141.22 32.96, 102.57 -0.63 M186.35 72.19 C167.72 56, 149.1 39.81, 102.57 -0.63 M191.99 71.8 C162.32 46.01, 132.66 20.22, 108.97 -0.37 M191.99 71.8 C172.94 55.24, 153.89 38.68, 108.97 -0.37 M197.63 71.4 C173.5 50.42, 149.37 29.45, 114.62 -0.76 M197.63 71.4 C173.26 50.22, 148.89 29.03, 114.62 -0.76 M203.28 71.01 C175.76 47.09, 148.24 23.17, 121.01 -0.5 M203.28 71.01 C186.19 56.15, 169.1 41.3, 121.01 -0.5 M207.41 69.3 C184.83 49.67, 162.25 30.05, 126.66 -0.9 M207.41 69.3 C184.8 49.64, 162.18 29.98, 126.66 -0.9 M210.03 66.28 C186.08 45.46, 162.13 24.64, 133.05 -0.64 M210.03 66.28 C181.94 41.86, 153.85 17.44, 133.05 -0.64 M212.66 63.26 C192.36 45.62, 172.06 27.97, 139.45 -0.37 M212.66 63.26 C191.11 44.53, 169.55 25.79, 139.45 -0.37 M213.77 58.93 C189.18 37.55, 164.58 16.17, 145.1 -0.77 M213.77 58.93 C192.54 40.47, 171.3 22.01, 145.1 -0.77 M214.13 53.95 C193.2 35.74, 172.26 17.54, 151.49 -0.51 M214.13 53.95 C195.96 38.15, 177.79 22.35, 151.49 -0.51 M214.49 48.96 C199.83 36.21, 185.16 23.46, 157.14 -0.9 M214.49 48.96 C192.17 29.55, 169.85 10.15, 157.14 -0.9 M214.1 43.31 C198.4 29.67, 182.71 16.03, 163.53 -0.64 M214.1 43.31 C200.9 31.84, 187.7 20.36, 163.53 -0.64 M214.46 38.33 C201.39 26.97, 188.33 15.61, 169.93 -0.38 M214.46 38.33 C201.36 26.94, 188.26 15.56, 169.93 -0.38 M214.06 32.68 C203.48 23.48, 192.89 14.28, 175.57 -0.77 M214.06 32.68 C204.75 24.59, 195.44 16.49, 175.57 -0.77 M213.67 27.04 C205.1 19.59, 196.54 12.15, 181.97 -0.51 M213.67 27.04 C205.62 20.04, 197.56 13.04, 181.97 -0.51 M214.03 22.05 C205.92 15.01, 197.82 7.96, 187.62 -0.91 M214.03 22.05 C205.9 14.98, 197.76 7.91, 187.62 -0.91 M213.64 16.41 C207.85 11.39, 202.07 6.36, 194.01 -0.65 M213.64 16.41 C208.93 12.33, 204.23 8.24, 194.01 -0.65 M212.49 10.11 C209.16 7.22, 205.83 4.33, 201.17 0.27 M212.49 10.11 C208.24 6.42, 204 2.73, 201.17 0.27" stroke="#ced4da" stroke-width="0.5" fill="none"></path><path d="M18.09 0 C55.94 0, 93.79 0, 195.9 0 M18.09 0 C81.13 0, 144.18 0, 195.9 0 M195.9 0 C207.96 0, 213.99 6.03, 213.99 18.09 M195.9 0 C207.96 0, 213.99 6.03, 213.99 18.09 M213.99 18.09 C213.99 26.83, 213.99 35.56, 213.99 54.27 M213.99 18.09 C213.99 27.45, 213.99 36.81, 213.99 54.27 M213.99 54.27 C213.99 66.33, 207.96 72.36, 195.9 72.36 M213.99 54.27 C213.99 66.33, 207.96 72.36, 195.9 72.36 M195.9 72.36 C128.72 72.36, 61.54 72.36, 18.09 72.36 M195.9 72.36 C136.06 72.36, 76.23 72.36, 18.09 72.36 M18.09 72.36 C6.03 72.36, 0 66.33, 0 54.27 M18.09 72.36 C6.03 72.36, 0 66.33, 0 54.27 M0 54.27 C0 44.76, 0 35.25, 0 18.09 M0 54.27 C0 41.68, 0 29.1, 0 18.09 M0 18.09 C0 6.03, 6.03 0, 18.09 0 M0 18.09 C0 6.03, 6.03 0, 18.09 0" stroke="#ced4da" stroke-width="1" fill="none"></path></g><g transform="translate(723.1975242514472 191.79842033084242) rotate(0 28 17.5)"><text x="28" y="26.712" font-family="Nunito, Segoe UI Emoji" font-size="28px" fill="#c2255c" text-anchor="middle" style="white-space: pre;" direction="ltr" dominant-baseline="alphabetic">地狱</text></g><g stroke-linecap="round" transform="translate(644.3288973672618 82.69021646897312) rotate(0 106.9960300196638 36.17838069727094)"><path d="M2.32 7.32 C2.32 7.32, 2.32 7.32, 2.32 7.32 M2.32 7.32 C2.32 7.32, 2.32 7.32, 2.32 7.32 M0.75 15.23 C5.48 9.79, 10.21 4.35, 13.21 0.89 M0.75 15.23 C5.31 9.98, 9.87 4.73, 13.21 0.89 M0.49 21.62 C4.55 16.95, 8.62 12.27, 18.86 0.49 M0.49 21.62 C4.75 16.72, 9.01 11.82, 18.86 0.49 M0.23 28.02 C6.13 21.23, 12.03 14.45, 23.84 0.85 M0.23 28.02 C5.06 22.46, 9.89 16.91, 23.84 0.85 M0.62 33.67 C9.25 23.74, 17.87 13.82, 29.49 0.46 M0.62 33.67 C6.62 26.76, 12.62 19.86, 29.49 0.46 M0.36 40.06 C11.54 27.2, 22.72 14.34, 34.48 0.82 M0.36 40.06 C9.95 29.03, 19.54 18, 34.48 0.82 M0.75 45.71 C12.19 32.55, 23.63 19.39, 40.12 0.42 M0.75 45.71 C9.03 36.19, 17.3 26.67, 40.12 0.42 M0.49 52.1 C9.61 41.62, 18.72 31.14, 45.11 0.78 M0.49 52.1 C16.48 33.72, 32.46 15.33, 45.11 0.78 M0.23 58.5 C11.22 45.86, 22.22 33.21, 50.75 0.39 M0.23 58.5 C15.25 41.23, 30.27 23.95, 50.75 0.39 M1.94 62.64 C17 45.31, 32.06 27.99, 55.74 0.75 M1.94 62.64 C14.81 47.82, 27.69 33.01, 55.74 0.75 M4.3 66.01 C16.29 52.22, 28.28 38.43, 61.38 0.35 M4.3 66.01 C19.58 48.43, 34.87 30.85, 61.38 0.35 M6.66 69.39 C28.43 44.35, 50.21 19.3, 66.37 0.71 M6.66 69.39 C28.66 44.09, 50.65 18.79, 66.37 0.71 M10.34 71.26 C29.3 49.45, 48.26 27.64, 72.01 0.32 M10.34 71.26 C26.43 52.75, 42.52 34.25, 72.01 0.32 M15.33 71.62 C32.45 51.92, 49.58 32.22, 77 0.68 M15.33 71.62 C29.51 55.31, 43.69 38.99, 77 0.68 M19.66 72.74 C35.96 53.98, 52.27 35.22, 82.64 0.29 M19.66 72.74 C42.12 46.9, 64.58 21.06, 82.64 0.29 M25.3 72.34 C40.74 54.58, 56.18 36.82, 87.63 0.65 M25.3 72.34 C47.08 47.29, 68.85 22.24, 87.63 0.65 M30.29 72.7 C50.61 49.32, 70.93 25.95, 93.27 0.25 M30.29 72.7 C53.94 45.49, 77.59 18.28, 93.27 0.25 M35.93 72.31 C55.43 49.88, 74.92 27.45, 98.26 0.61 M35.93 72.31 C54.16 51.34, 72.39 30.37, 98.26 0.61 M40.92 72.67 C57.7 53.36, 74.49 34.05, 103.9 0.22 M40.92 72.67 C58.48 52.47, 76.04 32.27, 103.9 0.22 M46.56 72.27 C66.52 49.31, 86.49 26.34, 108.89 0.58 M46.56 72.27 C63.12 53.22, 79.69 34.17, 108.89 0.58 M51.55 72.63 C74.45 46.28, 97.36 19.93, 113.87 0.94 M51.55 72.63 C74.5 46.23, 97.45 19.83, 113.87 0.94 M56.53 72.99 C77.13 49.3, 97.73 25.6, 119.52 0.54 M56.53 72.99 C76.46 50.08, 96.38 27.16, 119.52 0.54 M62.18 72.6 C75.4 57.39, 88.63 42.17, 124.5 0.9 M62.18 72.6 C80.02 52.08, 97.86 31.55, 124.5 0.9 M67.16 72.96 C92.31 44.04, 117.45 15.11, 130.15 0.51 M67.16 72.96 C88.07 48.91, 108.97 24.86, 130.15 0.51 M72.81 72.57 C91.28 51.32, 109.75 30.07, 135.13 0.87 M72.81 72.57 C86.26 57.09, 99.72 41.61, 135.13 0.87 M77.79 72.93 C91.17 57.54, 104.54 42.16, 140.78 0.47 M77.79 72.93 C92.97 55.47, 108.14 38.02, 140.78 0.47 M83.44 72.53 C97.47 56.38, 111.51 40.24, 145.76 0.83 M83.44 72.53 C100.94 52.39, 118.45 32.25, 145.76 0.83 M88.42 72.89 C104.25 54.69, 120.07 36.49, 151.41 0.44 M88.42 72.89 C101.8 57.51, 115.17 42.13, 151.41 0.44 M94.07 72.5 C113.6 50.03, 133.13 27.56, 156.39 0.8 M94.07 72.5 C115.6 47.73, 137.13 22.95, 156.39 0.8 M99.05 72.86 C112.3 57.62, 125.54 42.39, 162.04 0.4 M99.05 72.86 C115.16 54.33, 131.27 35.8, 162.04 0.4 M104.7 72.46 C128.68 44.87, 152.67 17.27, 167.02 0.76 M104.7 72.46 C118.08 57.07, 131.46 41.68, 167.02 0.76 M109.68 72.82 C134.44 44.34, 159.21 15.86, 172.67 0.37 M109.68 72.82 C123.63 56.78, 137.58 40.74, 172.67 0.37 M115.33 72.43 C138.57 45.69, 161.82 18.95, 177.65 0.73 M115.33 72.43 C129.91 55.65, 144.49 38.88, 177.65 0.73 M120.31 72.79 C140.02 50.12, 159.72 27.46, 183.3 0.34 M120.31 72.79 C132.93 58.28, 145.54 43.77, 183.3 0.34 M125.96 72.39 C145.93 49.42, 165.9 26.44, 188.28 0.7 M125.96 72.39 C144 51.63, 162.05 30.87, 188.28 0.7 M130.94 72.75 C149.32 51.62, 167.69 30.48, 193.93 0.3 M130.94 72.75 C151.33 49.3, 171.72 25.85, 193.93 0.3 M136.59 72.36 C160.23 45.16, 183.88 17.96, 198.91 0.66 M136.59 72.36 C149.57 57.43, 162.55 42.5, 198.91 0.66 M141.57 72.72 C157.71 54.15, 173.85 35.59, 203.24 1.78 M141.57 72.72 C164.01 46.9, 186.45 21.09, 203.24 1.78 M147.22 72.32 C159.83 57.81, 172.44 43.3, 206.92 3.65 M147.22 72.32 C168.56 47.77, 189.9 23.22, 206.92 3.65 M152.2 72.68 C173.45 48.25, 194.69 23.81, 210.59 5.51 M152.2 72.68 C171.68 50.28, 191.16 27.88, 210.59 5.51 M157.85 72.29 C178.92 48.05, 199.99 23.81, 212.3 9.65 M157.85 72.29 C171.21 56.92, 184.56 41.56, 212.3 9.65 M162.84 72.65 C180.68 52.12, 198.52 31.59, 214.01 13.78 M162.84 72.65 C177.47 55.81, 192.11 38.97, 214.01 13.78 M167.82 73.01 C185.58 52.58, 203.33 32.16, 213.75 20.18 M167.82 73.01 C182.54 56.08, 197.25 39.15, 213.75 20.18 M173.47 72.62 C188.77 55.01, 204.07 37.41, 214.14 25.82 M173.47 72.62 C186.3 57.85, 199.13 43.09, 214.14 25.82 M178.45 72.98 C192.62 56.68, 206.79 40.38, 213.88 32.22 M178.45 72.98 C191.64 57.81, 204.82 42.64, 213.88 32.22 M184.1 72.58 C190.6 65.09, 197.11 57.61, 214.27 37.86 M184.1 72.58 C194.85 60.21, 205.6 47.84, 214.27 37.86 M189.08 72.94 C197.2 63.6, 205.33 54.25, 214.01 44.26 M189.08 72.94 C197.32 63.47, 205.55 53.99, 214.01 44.26 M194.73 72.55 C199.56 66.98, 204.4 61.42, 214.41 49.9 M194.73 72.55 C202.28 63.85, 209.84 55.16, 214.41 49.9 M200.37 72.15 C205.5 66.25, 210.64 60.34, 214.15 56.3 M200.37 72.15 C204.03 67.94, 207.69 63.73, 214.15 56.3 M207.32 70.25 C207.99 69.48, 208.66 68.71, 209.95 67.23 M207.32 70.25 C207.89 69.6, 208.45 68.95, 209.95 67.23 M4.59 67.89 C4.59 67.89, 4.59 67.89, 4.59 67.89 M4.59 67.89 C4.59 67.89, 4.59 67.89, 4.59 67.89 M14.76 71.43 C11.51 68.61, 8.26 65.78, 1.17 59.62 M14.76 71.43 C10.64 67.85, 6.52 64.27, 1.17 59.62 M21.15 71.69 C16.89 67.98, 12.62 64.28, 0.78 53.98 M21.15 71.69 C16 67.22, 10.85 62.74, 0.78 53.98 M27.55 71.95 C22.09 67.21, 16.64 62.47, 1.14 48.99 M27.55 71.95 C18.34 63.95, 9.13 55.94, 1.14 48.99 M33.95 72.22 C21.9 61.74, 9.85 51.27, 0.74 43.35 M33.95 72.22 C22.37 62.14, 10.78 52.07, 0.74 43.35 M39.59 71.82 C25.23 59.34, 10.87 46.85, 1.1 38.36 M39.59 71.82 C28.5 62.18, 17.41 52.54, 1.1 38.36 M45.99 72.08 C29.49 57.74, 12.99 43.39, 0.71 32.72 M45.99 72.08 C31.93 59.86, 17.87 47.64, 0.71 32.72 M51.63 71.69 C33.22 55.68, 14.8 39.67, 1.07 27.73 M51.63 71.69 C36.47 58.51, 21.31 45.33, 1.07 27.73 M58.03 71.95 C36.85 53.54, 15.67 35.12, 0.67 22.09 M58.03 71.95 C40.17 56.42, 22.31 40.9, 0.67 22.09 M64.43 72.21 C50.82 60.38, 37.21 48.55, 1.03 17.1 M64.43 72.21 C51.57 61.03, 38.71 49.85, 1.03 17.1 M70.07 71.82 C53.26 57.21, 36.46 42.59, 0.64 11.46 M70.07 71.82 C51.62 55.77, 33.16 39.73, 0.64 11.46 M76.47 72.08 C49.19 48.36, 21.91 24.65, 2.51 7.78 M76.47 72.08 C57.48 55.57, 38.49 39.06, 2.51 7.78 M82.11 71.68 C54.65 47.81, 27.19 23.94, 5.13 4.76 M82.11 71.68 C64.51 56.38, 46.9 41.08, 5.13 4.76 M88.51 71.94 C66.07 52.44, 43.64 32.94, 8.51 2.4 M88.51 71.94 C59.56 46.78, 30.61 21.61, 8.51 2.4 M94.91 72.21 C62.28 43.84, 29.65 15.48, 12.65 0.7 M94.91 72.21 C62.37 43.92, 29.82 15.63, 12.65 0.7 M100.55 71.81 C82.91 56.48, 65.27 41.14, 17.53 -0.36 M100.55 71.81 C79.05 53.12, 57.54 34.42, 17.53 -0.36 M106.95 72.07 C77.25 46.26, 47.55 20.44, 23.18 -0.75 M106.95 72.07 C81.59 50.03, 56.23 27.98, 23.18 -0.75 M112.59 71.68 C92.89 54.55, 73.19 37.42, 29.57 -0.49 M112.59 71.68 C85.22 47.88, 57.85 24.09, 29.57 -0.49 M118.99 71.94 C91.14 47.73, 63.29 23.52, 35.22 -0.88 M118.99 71.94 C99.99 55.42, 80.98 38.9, 35.22 -0.88 M125.39 72.2 C105.55 54.95, 85.71 37.71, 41.62 -0.62 M125.39 72.2 C92.21 43.36, 59.04 14.52, 41.62 -0.62 M131.03 71.81 C102.65 47.13, 74.27 22.46, 48.01 -0.36 M131.03 71.81 C99.03 43.99, 67.04 16.18, 48.01 -0.36 M137.43 72.07 C112.12 50.07, 86.81 28.07, 53.66 -0.75 M137.43 72.07 C110.56 48.71, 83.69 25.35, 53.66 -0.75 M143.07 71.67 C117.86 49.75, 92.64 27.83, 60.05 -0.49 M143.07 71.67 C115.14 47.39, 87.2 23.11, 60.05 -0.49 M149.47 71.93 C121.52 47.63, 93.56 23.33, 65.7 -0.89 M149.47 71.93 C132.11 56.84, 114.75 41.75, 65.7 -0.89 M155.87 72.2 C135.08 54.12, 114.29 36.05, 72.1 -0.63 M155.87 72.2 C124.14 44.61, 92.41 17.03, 72.1 -0.63 M161.51 71.8 C141.46 54.37, 121.41 36.94, 78.49 -0.37 M161.51 71.8 C128.35 42.97, 95.18 14.14, 78.49 -0.37 M167.91 72.06 C141.53 49.14, 115.16 26.21, 84.14 -0.76 M167.91 72.06 C138.46 46.46, 109.01 20.87, 84.14 -0.76 M173.55 71.67 C144.92 46.78, 116.29 21.89, 90.53 -0.5 M173.55 71.67 C150.13 51.31, 126.71 30.95, 90.53 -0.5 M179.95 71.93 C150.41 46.25, 120.86 20.57, 96.18 -0.89 M179.95 71.93 C160.29 54.84, 140.63 37.75, 96.18 -0.89 M186.35 72.19 C155.15 45.07, 123.95 17.95, 102.57 -0.63 M186.35 72.19 C162.86 51.78, 139.38 31.36, 102.57 -0.63 M191.99 71.8 C165.42 48.7, 138.85 25.61, 108.97 -0.37 M191.99 71.8 C163.03 46.62, 134.07 21.45, 108.97 -0.37 M197.63 71.4 C175.87 52.48, 154.11 33.57, 114.62 -0.76 M197.63 71.4 C176.04 52.63, 154.45 33.86, 114.62 -0.76 M203.28 71.01 C179.86 50.65, 156.44 30.3, 121.01 -0.5 M203.28 71.01 C174.06 45.61, 144.84 20.21, 121.01 -0.5 M207.41 69.3 C178.21 43.92, 149.02 18.54, 126.66 -0.9 M207.41 69.3 C180.94 46.29, 154.47 23.28, 126.66 -0.9 M210.03 66.28 C192.82 51.32, 175.6 36.35, 133.05 -0.64 M210.03 66.28 C190.37 49.19, 170.7 32.09, 133.05 -0.64 M212.66 63.26 C196.02 48.8, 179.37 34.33, 139.45 -0.37 M212.66 63.26 C195.77 48.59, 178.89 33.91, 139.45 -0.37 M213.77 58.93 C198.43 45.59, 183.08 32.25, 145.1 -0.77 M213.77 58.93 C186.84 35.52, 159.91 12.11, 145.1 -0.77 M214.13 53.95 C199.99 41.65, 185.85 29.36, 151.49 -0.51 M214.13 53.95 C191.81 34.54, 169.49 15.14, 151.49 -0.51 M214.49 48.96 C198.44 35, 182.38 21.04, 157.14 -0.9 M214.49 48.96 C200.25 36.58, 186.01 24.2, 157.14 -0.9 M214.1 43.31 C197.3 28.71, 180.5 14.11, 163.53 -0.64 M214.1 43.31 C197.25 28.67, 180.4 14.02, 163.53 -0.64 M214.46 38.33 C201.18 26.78, 187.89 15.23, 169.93 -0.38 M214.46 38.33 C203.44 28.75, 192.41 19.16, 169.93 -0.38 M214.06 32.68 C201.29 21.58, 188.52 10.48, 175.57 -0.77 M214.06 32.68 C205.2 24.98, 196.33 17.27, 175.57 -0.77 M213.67 27.04 C204.38 18.96, 195.08 10.88, 181.97 -0.51 M213.67 27.04 C202.44 17.28, 191.21 7.52, 181.97 -0.51 M214.03 22.05 C208.25 17.03, 202.48 12.01, 187.62 -0.91 M214.03 22.05 C204.59 13.85, 195.16 5.65, 187.62 -0.91 M213.64 16.41 C206.01 9.78, 198.39 3.16, 194.01 -0.65 M213.64 16.41 C208.27 11.75, 202.91 7.09, 194.01 -0.65 M212.49 10.11 C208 6.21, 203.51 2.31, 201.17 0.27 M212.49 10.11 C209.49 7.51, 206.5 4.91, 201.17 0.27" stroke="#ced4da" stroke-width="0.5" fill="none"></path><path d="M18.09 0 C66.61 0, 115.14 0, 195.9 0 M18.09 0 C61.52 0, 104.96 0, 195.9 0 M195.9 0 C207.96 0, 213.99 6.03, 213.99 18.09 M195.9 0 C207.96 0, 213.99 6.03, 213.99 18.09 M213.99 18.09 C213.99 31.54, 213.99 44.99, 213.99 54.27 M213.99 18.09 C213.99 30.24, 213.99 42.4, 213.99 54.27 M213.99 54.27 C213.99 66.33, 207.96 72.36, 195.9 72.36 M213.99 54.27 C213.99 66.33, 207.96 72.36, 195.9 72.36 M195.9 72.36 C146.4 72.36, 96.9 72.36, 18.09 72.36 M195.9 72.36 C143.05 72.36, 90.2 72.36, 18.09 72.36 M18.09 72.36 C6.03 72.36, 0 66.33, 0 54.27 M18.09 72.36 C6.03 72.36, 0 66.33, 0 54.27 M0 54.27 C0 40.71, 0 27.15, 0 18.09 M0 54.27 C0 40.14, 0 26.01, 0 18.09 M0 18.09 C0 6.03, 6.03 0, 18.09 0 M0 18.09 C0 6.03, 6.03 0, 18.09 0" stroke="#ced4da" stroke-width="1" fill="none"></path></g><g transform="translate(723.3249273869255 101.36859716624406) rotate(0 28 17.5)"><text x="28" y="26.712" font-family="Nunito, Segoe UI Emoji" font-size="28px" fill="#1971c2" text-anchor="middle" style="white-space: pre;" direction="ltr" dominant-baseline="alphabetic">天堂</text></g><g stroke-linecap="round" transform="translate(10 59.66416659343702) rotate(0 122.42002896966468 104.6390720133154)"><path d="M32 0 C92.32 0, 152.64 0, 212.84 0 M32 0 C101.97 0, 171.95 0, 212.84 0 M212.84 0 C234.17 0, 244.84 10.67, 244.84 32 M212.84 0 C234.17 0, 244.84 10.67, 244.84 32 M244.84 32 C244.84 85.01, 244.84 138.02, 244.84 177.28 M244.84 32 C244.84 76.25, 244.84 120.5, 244.84 177.28 M244.84 177.28 C244.84 198.61, 234.17 209.28, 212.84 209.28 M244.84 177.28 C244.84 198.61, 234.17 209.28, 212.84 209.28 M212.84 209.28 C157.8 209.28, 102.77 209.28, 32 209.28 M212.84 209.28 C148.98 209.28, 85.11 209.28, 32 209.28 M32 209.28 C10.67 209.28, 0 198.61, 0 177.28 M32 209.28 C10.67 209.28, 0 198.61, 0 177.28 M0 177.28 C0 136.28, 0 95.28, 0 32 M0 177.28 C0 135.99, 0 94.71, 0 32 M0 32 C0 10.67, 10.67 0, 32 0 M0 32 C0 10.67, 10.67 0, 32 0" stroke="#ced4da" stroke-width="1" fill="none"></path></g><g stroke-linecap="round" transform="translate(25.09212204287195 173.1464426585598) rotate(0 106.9960300196638 36.17838069727094)"><path d="M2.32 7.32 C2.32 7.32, 2.32 7.32, 2.32 7.32 M2.32 7.32 C2.32 7.32, 2.32 7.32, 2.32 7.32 M0.75 15.23 C4.88 10.47, 9.01 5.72, 13.21 0.89 M0.75 15.23 C4.83 10.53, 8.91 5.83, 13.21 0.89 M0.49 21.62 C7.48 13.59, 14.46 5.55, 18.86 0.49 M0.49 21.62 C5.19 16.22, 9.89 10.81, 18.86 0.49 M0.23 28.02 C6.07 21.31, 11.91 14.59, 23.84 0.85 M0.23 28.02 C6.88 20.37, 13.52 12.72, 23.84 0.85 M0.62 33.67 C9.88 23.02, 19.14 12.37, 29.49 0.46 M0.62 33.67 C11.24 21.45, 21.86 9.23, 29.49 0.46 M0.36 40.06 C9.47 29.58, 18.59 19.1, 34.48 0.82 M0.36 40.06 C10.97 27.86, 21.58 15.66, 34.48 0.82 M0.75 45.71 C11.06 33.86, 21.36 22.01, 40.12 0.42 M0.75 45.71 C8.89 36.34, 17.03 26.98, 40.12 0.42 M0.49 52.1 C10.29 40.84, 20.08 29.57, 45.11 0.78 M0.49 52.1 C14.82 35.63, 29.14 19.15, 45.11 0.78 M0.23 58.5 C11.7 45.31, 23.18 32.11, 50.75 0.39 M0.23 58.5 C18.29 37.73, 36.34 16.96, 50.75 0.39 M1.94 62.64 C22.03 39.53, 42.11 16.42, 55.74 0.75 M1.94 62.64 C19.5 42.44, 37.06 22.24, 55.74 0.75 M4.3 66.01 C26.06 40.99, 47.81 15.96, 61.38 0.35 M4.3 66.01 C16.52 51.96, 28.74 37.9, 61.38 0.35 M6.66 69.39 C20.89 53.03, 35.12 36.66, 66.37 0.71 M6.66 69.39 C21.65 52.16, 36.63 34.92, 66.37 0.71 M10.34 71.26 C24.45 55.03, 38.57 38.79, 72.01 0.32 M10.34 71.26 C33.81 44.27, 57.27 17.27, 72.01 0.32 M15.33 71.62 C37.81 45.76, 60.29 19.9, 77 0.68 M15.33 71.62 C35.56 48.35, 55.8 25.07, 77 0.68 M19.66 72.74 C33.25 57.1, 46.84 41.47, 82.64 0.29 M19.66 72.74 C36.64 53.2, 53.63 33.66, 82.64 0.29 M25.3 72.34 C46.68 47.75, 68.06 23.16, 87.63 0.65 M25.3 72.34 C44.03 50.79, 62.77 29.24, 87.63 0.65 M30.29 72.7 C50.95 48.94, 71.61 25.17, 93.27 0.25 M30.29 72.7 C49.44 50.67, 68.59 28.64, 93.27 0.25 M35.93 72.31 C48.72 57.6, 61.5 42.89, 98.26 0.61 M35.93 72.31 C49.67 56.51, 63.41 40.7, 98.26 0.61 M40.92 72.67 C59.34 51.48, 77.76 30.29, 103.9 0.22 M40.92 72.67 C60.78 49.82, 80.65 26.97, 103.9 0.22 M46.56 72.27 C60.46 56.28, 74.37 40.28, 108.89 0.58 M46.56 72.27 C62.09 54.41, 77.62 36.55, 108.89 0.58 M51.55 72.63 C75.01 45.64, 98.48 18.65, 113.87 0.94 M51.55 72.63 C73.04 47.91, 94.54 23.18, 113.87 0.94 M56.53 72.99 C76.03 50.56, 95.53 28.13, 119.52 0.54 M56.53 72.99 C72.76 54.33, 88.98 35.67, 119.52 0.54 M62.18 72.6 C86.37 44.77, 110.56 16.94, 124.5 0.9 M62.18 72.6 C77.32 55.18, 92.47 37.75, 124.5 0.9 M67.16 72.96 C80.9 57.16, 94.63 41.37, 130.15 0.51 M67.16 72.96 C81.4 56.58, 95.63 40.21, 130.15 0.51 M72.81 72.57 C90.02 52.76, 107.24 32.96, 135.13 0.87 M72.81 72.57 C89.62 53.23, 106.43 33.89, 135.13 0.87 M77.79 72.93 C99.36 48.12, 120.92 23.32, 140.78 0.47 M77.79 72.93 C93.16 55.25, 108.53 37.57, 140.78 0.47 M83.44 72.53 C104 48.88, 124.56 25.23, 145.76 0.83 M83.44 72.53 C101.78 51.43, 120.12 30.33, 145.76 0.83 M88.42 72.89 C108.4 49.91, 128.38 26.92, 151.41 0.44 M88.42 72.89 C107.98 50.4, 127.53 27.9, 151.41 0.44 M94.07 72.5 C117.7 45.31, 141.33 18.13, 156.39 0.8 M94.07 72.5 C118.71 44.15, 143.35 15.8, 156.39 0.8 M99.05 72.86 C112.78 57.07, 126.5 41.29, 162.04 0.4 M99.05 72.86 C120.08 48.67, 141.1 24.48, 162.04 0.4 M104.7 72.46 C129.29 44.18, 153.88 15.89, 167.02 0.76 M104.7 72.46 C120.97 53.74, 137.24 35.03, 167.02 0.76 M109.68 72.82 C132.37 46.73, 155.05 20.63, 172.67 0.37 M109.68 72.82 C130.58 48.78, 151.48 24.75, 172.67 0.37 M115.33 72.43 C133.23 51.83, 151.13 31.24, 177.65 0.73 M115.33 72.43 C139.55 44.56, 163.78 16.69, 177.65 0.73 M120.31 72.79 C139.25 51.01, 158.18 29.23, 183.3 0.34 M120.31 72.79 C134.89 56.02, 149.47 39.25, 183.3 0.34 M125.96 72.39 C145.22 50.23, 164.48 28.08, 188.28 0.7 M125.96 72.39 C143.73 51.95, 161.5 31.51, 188.28 0.7 M130.94 72.75 C145.83 55.63, 160.71 38.51, 193.93 0.3 M130.94 72.75 C147.9 53.24, 164.86 33.73, 193.93 0.3 M136.59 72.36 C152.32 54.26, 168.06 36.16, 198.91 0.66 M136.59 72.36 C153.2 53.25, 169.8 34.15, 198.91 0.66 M141.57 72.72 C154.22 58.17, 166.86 43.63, 203.24 1.78 M141.57 72.72 C165.7 44.97, 189.82 17.22, 203.24 1.78 M147.22 72.32 C162.17 55.12, 177.12 37.92, 206.92 3.65 M147.22 72.32 C162.64 54.59, 178.06 36.85, 206.92 3.65 M152.2 72.68 C168.85 53.53, 185.5 34.38, 210.59 5.51 M152.2 72.68 C166.93 55.74, 181.66 38.8, 210.59 5.51 M157.85 72.29 C178.36 48.69, 198.88 25.09, 212.3 9.65 M157.85 72.29 C179.38 47.52, 200.91 22.75, 212.3 9.65 M162.84 72.65 C183.08 49.36, 203.32 26.08, 214.01 13.78 M162.84 72.65 C173.95 59.86, 185.06 47.08, 214.01 13.78 M167.82 73.01 C179.1 60.03, 190.38 47.06, 213.75 20.18 M167.82 73.01 C178.03 61.27, 188.24 49.52, 213.75 20.18 M173.47 72.62 C185.51 58.76, 197.55 44.91, 214.14 25.82 M173.47 72.62 C188.11 55.77, 202.75 38.93, 214.14 25.82 M178.45 72.98 C185.96 64.33, 193.48 55.69, 213.88 32.22 M178.45 72.98 C188.81 61.06, 199.17 49.14, 213.88 32.22 M184.1 72.58 C195.76 59.16, 207.43 45.73, 214.27 37.86 M184.1 72.58 C192.06 63.42, 200.02 54.26, 214.27 37.86 M189.08 72.94 C198.35 62.28, 207.61 51.63, 214.01 44.26 M189.08 72.94 C198.28 62.36, 207.48 51.78, 214.01 44.26 M194.73 72.55 C200.8 65.56, 206.87 58.58, 214.41 49.9 M194.73 72.55 C199.09 67.53, 203.45 62.51, 214.41 49.9 M200.37 72.15 C205.33 66.44, 210.3 60.73, 214.15 56.3 M200.37 72.15 C203.46 68.6, 206.55 65.04, 214.15 56.3 M207.32 70.25 C208.22 69.21, 209.12 68.18, 209.95 67.23 M207.32 70.25 C207.94 69.54, 208.56 68.83, 209.95 67.23 M4.59 67.89 C4.59 67.89, 4.59 67.89, 4.59 67.89 M4.59 67.89 C4.59 67.89, 4.59 67.89, 4.59 67.89 M14.76 71.43 C11.88 68.93, 9 66.43, 1.17 59.62 M14.76 71.43 C11.81 68.87, 8.86 66.31, 1.17 59.62 M21.15 71.69 C15.58 66.85, 10.01 62, 0.78 53.98 M21.15 71.69 C16.92 68.01, 12.69 64.33, 0.78 53.98 M27.55 71.95 C20.2 65.56, 12.84 59.17, 1.14 48.99 M27.55 71.95 C17.34 63.08, 7.13 54.2, 1.14 48.99 M33.95 72.22 C21.55 61.43, 9.14 50.65, 0.74 43.35 M33.95 72.22 C23.07 62.76, 12.19 53.3, 0.74 43.35 M39.59 71.82 C26.28 60.25, 12.97 48.68, 1.1 38.36 M39.59 71.82 C29.02 62.63, 18.45 53.44, 1.1 38.36 M45.99 72.08 C34.5 62.1, 23.02 52.11, 0.71 32.72 M45.99 72.08 C36.5 63.83, 27.01 55.58, 0.71 32.72 M51.63 71.69 C38.59 60.35, 25.54 49.01, 1.07 27.73 M51.63 71.69 C35.4 57.58, 19.17 43.47, 1.07 27.73 M58.03 71.95 C43.5 59.31, 28.96 46.68, 0.67 22.09 M58.03 71.95 C42.37 58.33, 26.7 44.72, 0.67 22.09 M64.43 72.21 C45.43 55.7, 26.44 39.19, 1.03 17.1 M64.43 72.21 C47.03 57.09, 29.63 41.96, 1.03 17.1 M70.07 71.82 C52.53 56.57, 34.99 41.32, 0.64 11.46 M70.07 71.82 C46 50.89, 21.93 29.97, 0.64 11.46 M76.47 72.08 C47.19 46.62, 17.9 21.16, 2.51 7.78 M76.47 72.08 C47.38 46.79, 18.29 21.5, 2.51 7.78 M82.11 71.68 C61.18 53.49, 40.25 35.29, 5.13 4.76 M82.11 71.68 C61.45 53.72, 40.78 35.75, 5.13 4.76 M88.51 71.94 C63.49 50.19, 38.46 28.44, 8.51 2.4 M88.51 71.94 C68.88 54.88, 49.24 37.81, 8.51 2.4 M94.91 72.21 C72.5 52.73, 50.1 33.25, 12.65 0.7 M94.91 72.21 C71.4 51.77, 47.89 31.33, 12.65 0.7 M100.55 71.81 C79.24 53.28, 57.92 34.76, 17.53 -0.36 M100.55 71.81 C75 49.6, 49.44 27.38, 17.53 -0.36 M106.95 72.07 C77.14 46.16, 47.32 20.24, 23.18 -0.75 M106.95 72.07 C85.55 53.47, 64.15 34.86, 23.18 -0.75 M112.59 71.68 C89.78 51.84, 66.96 32.01, 29.57 -0.49 M112.59 71.68 C82.13 45.19, 51.66 18.71, 29.57 -0.49 M118.99 71.94 C88.43 45.37, 57.86 18.8, 35.22 -0.88 M118.99 71.94 C98.58 54.19, 78.16 36.45, 35.22 -0.88 M125.39 72.2 C104.04 53.64, 82.69 35.09, 41.62 -0.62 M125.39 72.2 C98.69 48.99, 71.98 25.78, 41.62 -0.62 M131.03 71.81 C107.59 51.43, 84.15 31.05, 48.01 -0.36 M131.03 71.81 C103.97 48.28, 76.91 24.76, 48.01 -0.36 M137.43 72.07 C110.19 48.39, 82.96 24.72, 53.66 -0.75 M137.43 72.07 C106.57 45.24, 75.71 18.42, 53.66 -0.75 M143.07 71.67 C123.81 54.93, 104.54 38.18, 60.05 -0.49 M143.07 71.67 C110.93 43.73, 78.78 15.79, 60.05 -0.49 M149.47 71.93 C128.14 53.39, 106.8 34.84, 65.7 -0.89 M149.47 71.93 C130.17 55.15, 110.86 38.37, 65.7 -0.89 M155.87 72.2 C132.56 51.93, 109.25 31.67, 72.1 -0.63 M155.87 72.2 C128.92 48.77, 101.97 25.34, 72.1 -0.63 M161.51 71.8 C140.5 53.54, 119.49 35.27, 78.49 -0.37 M161.51 71.8 C134.21 48.07, 106.9 24.33, 78.49 -0.37 M167.91 72.06 C148.99 55.61, 130.06 39.16, 84.14 -0.76 M167.91 72.06 C148.38 55.09, 128.85 38.11, 84.14 -0.76 M173.55 71.67 C142.78 44.92, 112 18.16, 90.53 -0.5 M173.55 71.67 C140.58 43.01, 107.61 14.35, 90.53 -0.5 M179.95 71.93 C161.48 55.87, 143 39.81, 96.18 -0.89 M179.95 71.93 C160.31 54.85, 140.66 37.78, 96.18 -0.89 M186.35 72.19 C161.36 50.47, 136.37 28.75, 102.57 -0.63 M186.35 72.19 C163.07 51.96, 139.79 31.72, 102.57 -0.63 M191.99 71.8 C163.07 46.66, 134.16 21.52, 108.97 -0.37 M191.99 71.8 C171.38 53.88, 150.78 35.97, 108.97 -0.37 M197.63 71.4 C167.13 44.89, 136.63 18.38, 114.62 -0.76 M197.63 71.4 C170.8 48.08, 143.97 24.75, 114.62 -0.76 M203.28 71.01 C183.85 54.12, 164.43 37.24, 121.01 -0.5 M203.28 71.01 C186.32 56.27, 169.37 41.53, 121.01 -0.5 M207.41 69.3 C179.14 44.72, 150.87 20.15, 126.66 -0.9 M207.41 69.3 C175.55 41.6, 143.68 13.9, 126.66 -0.9 M210.03 66.28 C190.69 49.46, 171.34 32.65, 133.05 -0.64 M210.03 66.28 C190.84 49.6, 171.65 32.91, 133.05 -0.64 M212.66 63.26 C193.68 46.77, 174.71 30.27, 139.45 -0.37 M212.66 63.26 C193.42 46.53, 174.17 29.81, 139.45 -0.37 M213.77 58.93 C193.03 40.9, 172.29 22.87, 145.1 -0.77 M213.77 58.93 C191.22 39.33, 168.67 19.72, 145.1 -0.77 M214.13 53.95 C192.33 35, 170.53 16.04, 151.49 -0.51 M214.13 53.95 C201.09 42.6, 188.04 31.26, 151.49 -0.51 M214.49 48.96 C200.91 37.15, 187.33 25.34, 157.14 -0.9 M214.49 48.96 C202.84 38.83, 191.18 28.69, 157.14 -0.9 M214.1 43.31 C198.4 29.66, 182.69 16.01, 163.53 -0.64 M214.1 43.31 C202.95 33.62, 191.8 23.93, 163.53 -0.64 M214.46 38.33 C203.55 28.84, 192.63 19.35, 169.93 -0.38 M214.46 38.33 C203.64 28.92, 192.81 19.51, 169.93 -0.38 M214.06 32.68 C203.23 23.27, 192.4 13.85, 175.57 -0.77 M214.06 32.68 C198.73 19.36, 183.4 6.03, 175.57 -0.77 M213.67 27.04 C205.53 19.97, 197.39 12.89, 181.97 -0.51 M213.67 27.04 C206.48 20.8, 199.3 14.55, 181.97 -0.51 M214.03 22.05 C207.8 16.64, 201.57 11.22, 187.62 -0.91 M214.03 22.05 C204.78 14.01, 195.52 5.97, 187.62 -0.91 M213.64 16.41 C206.92 10.57, 200.2 4.73, 194.01 -0.65 M213.64 16.41 C206.92 10.58, 200.21 4.74, 194.01 -0.65 M212.49 10.11 C208.07 6.28, 203.66 2.44, 201.17 0.27 M212.49 10.11 C208.03 6.23, 203.56 2.36, 201.17 0.27" stroke="#ced4da" stroke-width="0.5" fill="none"></path><path d="M18.09 0 C74.56 0, 131.03 0, 195.9 0 M18.09 0 C86.83 0, 155.57 0, 195.9 0 M195.9 0 C207.96 0, 213.99 6.03, 213.99 18.09 M195.9 0 C207.96 0, 213.99 6.03, 213.99 18.09 M213.99 18.09 C213.99 31.66, 213.99 45.24, 213.99 54.27 M213.99 18.09 C213.99 30.58, 213.99 43.08, 213.99 54.27 M213.99 54.27 C213.99 66.33, 207.96 72.36, 195.9 72.36 M213.99 54.27 C213.99 66.33, 207.96 72.36, 195.9 72.36 M195.9 72.36 C155.37 72.36, 114.84 72.36, 18.09 72.36 M195.9 72.36 C150.33 72.36, 104.76 72.36, 18.09 72.36 M18.09 72.36 C6.03 72.36, 0 66.33, 0 54.27 M18.09 72.36 C6.03 72.36, 0 66.33, 0 54.27 M0 54.27 C0 44.38, 0 34.5, 0 18.09 M0 54.27 C0 40.45, 0 26.62, 0 18.09 M0 18.09 C0 6.03, 6.03 0, 18.09 0 M0 18.09 C0 6.03, 6.03 0, 18.09 0" stroke="#ced4da" stroke-width="1" fill="none"></path></g><g transform="translate(76.08815206253576 191.82482335583074) rotate(0 56 17.5)"><text x="56" y="26.712" font-family="Nunito, Segoe UI Emoji" font-size="28px" fill="#c2255c" text-anchor="middle" style="white-space: pre;" direction="ltr" dominant-baseline="alphabetic">不信的人</text></g><g stroke-linecap="round" transform="translate(25.21952517835024 82.81131021897312) rotate(0 106.9960300196638 36.17838069727094)"><path d="M2.32 7.32 C2.32 7.32, 2.32 7.32, 2.32 7.32 M2.32 7.32 C2.32 7.32, 2.32 7.32, 2.32 7.32 M0.75 15.23 C3.37 12.21, 5.99 9.2, 13.21 0.89 M0.75 15.23 C5.48 9.78, 10.22 4.34, 13.21 0.89 M0.49 21.62 C4.29 17.26, 8.08 12.89, 18.86 0.49 M0.49 21.62 C7.06 14.06, 13.63 6.5, 18.86 0.49 M0.23 28.02 C5.46 22, 10.7 15.97, 23.84 0.85 M0.23 28.02 C8.5 18.5, 16.78 8.98, 23.84 0.85 M0.62 33.67 C8.33 24.8, 16.04 15.93, 29.49 0.46 M0.62 33.67 C7.25 26.04, 13.88 18.41, 29.49 0.46 M0.36 40.06 C9.56 29.48, 18.75 18.91, 34.48 0.82 M0.36 40.06 C9.3 29.78, 18.23 19.5, 34.48 0.82 M0.75 45.71 C12.66 32.01, 24.56 18.32, 40.12 0.42 M0.75 45.71 C15.58 28.65, 30.41 11.59, 40.12 0.42 M0.49 52.1 C10.15 41, 19.8 29.89, 45.11 0.78 M0.49 52.1 C10.99 40.03, 21.48 27.96, 45.11 0.78 M0.23 58.5 C13.92 42.76, 27.61 27.01, 50.75 0.39 M0.23 58.5 C15.36 41.1, 30.49 23.7, 50.75 0.39 M1.94 62.64 C21.61 40.01, 41.28 17.38, 55.74 0.75 M1.94 62.64 C18.11 44.04, 34.28 25.43, 55.74 0.75 M4.3 66.01 C19.78 48.2, 35.27 30.39, 61.38 0.35 M4.3 66.01 C21.87 45.8, 39.44 25.59, 61.38 0.35 M6.66 69.39 C22.26 51.45, 37.86 33.51, 66.37 0.71 M6.66 69.39 C30.39 42.1, 54.12 14.8, 66.37 0.71 M10.34 71.26 C31.47 46.95, 52.61 22.64, 72.01 0.32 M10.34 71.26 C30.14 48.48, 49.94 25.7, 72.01 0.32 M15.33 71.62 C33.08 51.2, 50.83 30.78, 77 0.68 M15.33 71.62 C38.44 45.03, 61.56 18.43, 77 0.68 M19.66 72.74 C36.36 53.52, 53.06 34.31, 82.64 0.29 M19.66 72.74 C36.53 53.33, 53.4 33.92, 82.64 0.29 M25.3 72.34 C42.17 52.93, 59.05 33.52, 87.63 0.65 M25.3 72.34 C49.68 44.29, 74.07 16.25, 87.63 0.65 M30.29 72.7 C52.91 46.67, 75.54 20.64, 93.27 0.25 M30.29 72.7 C48.32 51.96, 66.35 31.21, 93.27 0.25 M35.93 72.31 C53.11 52.54, 70.3 32.77, 98.26 0.61 M35.93 72.31 C55.51 49.78, 75.09 27.26, 98.26 0.61 M40.92 72.67 C58.94 51.94, 76.96 31.2, 103.9 0.22 M40.92 72.67 C61.31 49.21, 81.7 25.75, 103.9 0.22 M46.56 72.27 C59.6 57.27, 72.65 42.26, 108.89 0.58 M46.56 72.27 C66.56 49.27, 86.56 26.26, 108.89 0.58 M51.55 72.63 C66.98 54.88, 82.41 37.13, 113.87 0.94 M51.55 72.63 C72.55 48.47, 93.55 24.31, 113.87 0.94 M56.53 72.99 C70.3 57.16, 84.07 41.32, 119.52 0.54 M56.53 72.99 C75.29 51.42, 94.05 29.84, 119.52 0.54 M62.18 72.6 C86.24 44.92, 110.31 17.23, 124.5 0.9 M62.18 72.6 C80.39 51.65, 98.6 30.71, 124.5 0.9 M67.16 72.96 C85.52 51.85, 103.87 30.73, 130.15 0.51 M67.16 72.96 C82.33 55.52, 97.49 38.07, 130.15 0.51 M72.81 72.57 C96.78 44.99, 120.76 17.4, 135.13 0.87 M72.81 72.57 C95.55 46.41, 118.28 20.25, 135.13 0.87 M77.79 72.93 C93.92 54.37, 110.05 35.82, 140.78 0.47 M77.79 72.93 C93.85 54.45, 109.91 35.98, 140.78 0.47 M83.44 72.53 C100.08 53.39, 116.72 34.24, 145.76 0.83 M83.44 72.53 C104.62 48.16, 125.81 23.79, 145.76 0.83 M88.42 72.89 C112.45 45.25, 136.48 17.6, 151.41 0.44 M88.42 72.89 C110.79 47.16, 133.16 21.43, 151.41 0.44 M94.07 72.5 C118.84 44, 143.61 15.51, 156.39 0.8 M94.07 72.5 C107.26 57.32, 120.45 42.14, 156.39 0.8 M99.05 72.86 C122.83 45.51, 146.6 18.16, 162.04 0.4 M99.05 72.86 C115.75 53.65, 132.45 34.44, 162.04 0.4 M104.7 72.46 C122.2 52.33, 139.7 32.19, 167.02 0.76 M104.7 72.46 C128.62 44.94, 152.54 17.42, 167.02 0.76 M109.68 72.82 C134.51 44.27, 159.33 15.71, 172.67 0.37 M109.68 72.82 C123.43 57.01, 137.18 41.2, 172.67 0.37 M115.33 72.43 C137.94 46.42, 160.55 20.41, 177.65 0.73 M115.33 72.43 C132.11 53.12, 148.9 33.8, 177.65 0.73 M120.31 72.79 C134.32 56.68, 148.32 40.57, 183.3 0.34 M120.31 72.79 C142.82 46.9, 165.33 21, 183.3 0.34 M125.96 72.39 C140.26 55.94, 154.56 39.49, 188.28 0.7 M125.96 72.39 C144.07 51.55, 162.19 30.71, 188.28 0.7 M130.94 72.75 C149.44 51.48, 167.93 30.21, 193.93 0.3 M130.94 72.75 C152.01 48.52, 173.08 24.28, 193.93 0.3 M136.59 72.36 C149.53 57.47, 162.48 42.57, 198.91 0.66 M136.59 72.36 C154.01 52.31, 171.44 32.27, 198.91 0.66 M141.57 72.72 C158.84 52.85, 176.11 32.99, 203.24 1.78 M141.57 72.72 C160.76 50.65, 179.95 28.57, 203.24 1.78 M147.22 72.32 C169.01 47.26, 190.79 22.2, 206.92 3.65 M147.22 72.32 C163.77 53.28, 180.33 34.24, 206.92 3.65 M152.2 72.68 C169.4 52.91, 186.59 33.13, 210.59 5.51 M152.2 72.68 C173.11 48.63, 194.02 24.58, 210.59 5.51 M157.85 72.29 C174.68 52.92, 191.52 33.55, 212.3 9.65 M157.85 72.29 C176.05 51.35, 194.25 30.41, 212.3 9.65 M162.84 72.65 C177.68 55.57, 192.52 38.5, 214.01 13.78 M162.84 72.65 C175.92 57.6, 189 42.55, 214.01 13.78 M167.82 73.01 C185.69 52.45, 203.57 31.89, 213.75 20.18 M167.82 73.01 C182.08 56.61, 196.33 40.21, 213.75 20.18 M173.47 72.62 C184.08 60.4, 194.7 48.18, 214.14 25.82 M173.47 72.62 C185.4 58.89, 197.33 45.16, 214.14 25.82 M178.45 72.98 C188.87 60.99, 199.3 49, 213.88 32.22 M178.45 72.98 C188.2 61.76, 197.94 50.55, 213.88 32.22 M184.1 72.58 C191.4 64.18, 198.7 55.78, 214.27 37.86 M184.1 72.58 C192.25 63.2, 200.41 53.81, 214.27 37.86 M189.08 72.94 C195.42 65.65, 201.75 58.37, 214.01 44.26 M189.08 72.94 C196.73 64.14, 204.38 55.34, 214.01 44.26 M194.73 72.55 C200.79 65.57, 206.85 58.6, 214.41 49.9 M194.73 72.55 C200.52 65.87, 206.32 59.2, 214.41 49.9 M200.37 72.15 C203.67 68.35, 206.97 64.56, 214.15 56.3 M200.37 72.15 C204.42 67.49, 208.47 62.84, 214.15 56.3 M207.32 70.25 C208.31 69.12, 209.29 67.98, 209.95 67.23 M207.32 70.25 C208.33 69.09, 209.34 67.93, 209.95 67.23 M4.59 67.89 C4.59 67.89, 4.59 67.89, 4.59 67.89 M4.59 67.89 C4.59 67.89, 4.59 67.89, 4.59 67.89 M14.76 71.43 C9.33 66.71, 3.9 61.99, 1.17 59.62 M14.76 71.43 C11.14 68.29, 7.52 65.14, 1.17 59.62 M21.15 71.69 C15.6 66.87, 10.05 62.04, 0.78 53.98 M21.15 71.69 C14.38 65.8, 7.6 59.91, 0.78 53.98 M27.55 71.95 C17.55 63.26, 7.54 54.56, 1.14 48.99 M27.55 71.95 C17.6 63.3, 7.64 54.64, 1.14 48.99 M33.95 72.22 C21.86 61.71, 9.78 51.2, 0.74 43.35 M33.95 72.22 C27.07 66.24, 20.2 60.26, 0.74 43.35 M39.59 71.82 C26.11 60.1, 12.62 48.37, 1.1 38.36 M39.59 71.82 C29.5 63.04, 19.4 54.27, 1.1 38.36 M45.99 72.08 C29.26 57.54, 12.53 42.99, 0.71 32.72 M45.99 72.08 C33.19 60.95, 20.39 49.82, 0.71 32.72 M51.63 71.69 C31.78 54.42, 11.92 37.16, 1.07 27.73 M51.63 71.69 C32.54 55.09, 13.45 38.49, 1.07 27.73 M58.03 71.95 C37.23 53.86, 16.42 35.78, 0.67 22.09 M58.03 71.95 C41.15 57.27, 24.26 42.6, 0.67 22.09 M64.43 72.21 C50.18 59.82, 35.93 47.43, 1.03 17.1 M64.43 72.21 C46.22 56.38, 28 40.54, 1.03 17.1 M70.07 71.82 C45.22 50.21, 20.36 28.61, 0.64 11.46 M70.07 71.82 C43.25 48.5, 16.43 25.19, 0.64 11.46 M76.47 72.08 C61.22 58.82, 45.96 45.56, 2.51 7.78 M76.47 72.08 C56.83 55.01, 37.2 37.94, 2.51 7.78 M82.11 71.68 C58.24 50.93, 34.37 30.18, 5.13 4.76 M82.11 71.68 C58.08 50.79, 34.05 29.9, 5.13 4.76 M88.51 71.94 C61.53 48.49, 34.54 25.03, 8.51 2.4 M88.51 71.94 C64.88 51.4, 41.24 30.85, 8.51 2.4 M94.91 72.21 C69.02 49.7, 43.14 27.2, 12.65 0.7 M94.91 72.21 C75.57 55.4, 56.24 38.59, 12.65 0.7 M100.55 71.81 C79.06 53.13, 57.58 34.45, 17.53 -0.36 M100.55 71.81 C78.14 52.33, 55.73 32.85, 17.53 -0.36 M106.95 72.07 C89.54 56.93, 72.12 41.8, 23.18 -0.75 M106.95 72.07 C79.53 48.24, 52.11 24.4, 23.18 -0.75 M112.59 71.68 C91.64 53.47, 70.7 35.26, 29.57 -0.49 M112.59 71.68 C80.13 43.46, 47.66 15.24, 29.57 -0.49 M118.99 71.94 C88.28 45.25, 57.58 18.55, 35.22 -0.88 M118.99 71.94 C87.93 44.94, 56.87 17.94, 35.22 -0.88 M125.39 72.2 C105.29 54.73, 85.19 37.26, 41.62 -0.62 M125.39 72.2 C94.37 45.24, 63.35 18.27, 41.62 -0.62 M131.03 71.81 C105.45 49.57, 79.87 27.33, 48.01 -0.36 M131.03 71.81 C101.43 46.08, 71.83 20.34, 48.01 -0.36 M137.43 72.07 C105.23 44.08, 73.03 16.09, 53.66 -0.75 M137.43 72.07 C118.29 55.43, 99.16 38.8, 53.66 -0.75 M143.07 71.67 C118.95 50.7, 94.82 29.73, 60.05 -0.49 M143.07 71.67 C119.39 51.09, 95.71 30.5, 60.05 -0.49 M149.47 71.93 C125.26 50.89, 101.05 29.85, 65.7 -0.89 M149.47 71.93 C124.7 50.4, 99.92 28.86, 65.7 -0.89 M155.87 72.2 C129.67 49.42, 103.47 26.65, 72.1 -0.63 M155.87 72.2 C125.15 45.49, 94.43 18.79, 72.1 -0.63 M161.51 71.8 C128.49 43.09, 95.46 14.39, 78.49 -0.37 M161.51 71.8 C143.93 56.51, 126.34 41.23, 78.49 -0.37 M167.91 72.06 C141.62 49.21, 115.33 26.36, 84.14 -0.76 M167.91 72.06 C149.45 56.02, 131 39.98, 84.14 -0.76 M173.55 71.67 C140.72 43.13, 107.9 14.59, 90.53 -0.5 M173.55 71.67 C146.52 48.17, 119.48 24.66, 90.53 -0.5 M179.95 71.93 C148.64 44.72, 117.34 17.5, 96.18 -0.89 M179.95 71.93 C156.95 51.93, 133.94 31.93, 96.18 -0.89 M186.35 72.19 C169 57.11, 151.64 42.02, 102.57 -0.63 M186.35 72.19 C161.58 50.67, 136.82 29.14, 102.57 -0.63 M191.99 71.8 C166 49.21, 140.02 26.62, 108.97 -0.37 M191.99 71.8 C161.46 45.26, 130.94 18.72, 108.97 -0.37 M197.63 71.4 C164.53 42.63, 131.43 13.85, 114.62 -0.76 M197.63 71.4 C173.61 50.52, 149.59 29.64, 114.62 -0.76 M203.28 71.01 C179.18 50.06, 155.08 29.11, 121.01 -0.5 M203.28 71.01 C174.73 46.19, 146.19 21.38, 121.01 -0.5 M207.41 69.3 C176.98 42.85, 146.55 16.4, 126.66 -0.9 M207.41 69.3 C176.4 42.34, 145.39 15.39, 126.66 -0.9 M210.03 66.28 C193.46 51.88, 176.89 37.47, 133.05 -0.64 M210.03 66.28 C189.31 48.26, 168.58 30.24, 133.05 -0.64 M212.66 63.26 C184.23 38.55, 155.79 13.83, 139.45 -0.37 M212.66 63.26 C185.86 39.97, 159.06 16.67, 139.45 -0.37 M213.77 58.93 C191.63 39.68, 169.48 20.43, 145.1 -0.77 M213.77 58.93 C199.99 46.95, 186.21 34.97, 145.1 -0.77 M214.13 53.95 C194.01 36.45, 173.88 18.96, 151.49 -0.51 M214.13 53.95 C193.38 35.9, 172.62 17.86, 151.49 -0.51 M214.49 48.96 C191.69 29.14, 168.89 9.32, 157.14 -0.9 M214.49 48.96 C202.06 38.15, 189.62 27.34, 157.14 -0.9 M214.1 43.31 C198.74 29.96, 183.37 16.61, 163.53 -0.64 M214.1 43.31 C199.68 30.78, 185.26 18.25, 163.53 -0.64 M214.46 38.33 C198.24 24.23, 182.03 10.14, 169.93 -0.38 M214.46 38.33 C205.44 30.49, 196.42 22.65, 169.93 -0.38 M214.06 32.68 C202.33 22.48, 190.59 12.27, 175.57 -0.77 M214.06 32.68 C200.9 21.24, 187.74 9.8, 175.57 -0.77 M213.67 27.04 C204.58 19.14, 195.5 11.24, 181.97 -0.51 M213.67 27.04 C205.68 20.1, 197.69 13.15, 181.97 -0.51 M214.03 22.05 C205.2 14.37, 196.36 6.69, 187.62 -0.91 M214.03 22.05 C205.42 14.57, 196.82 7.09, 187.62 -0.91 M213.64 16.41 C206.38 10.1, 199.12 3.79, 194.01 -0.65 M213.64 16.41 C208.35 11.82, 203.07 7.23, 194.01 -0.65 M212.49 10.11 C209.74 7.73, 207 5.34, 201.17 0.27 M212.49 10.11 C208.3 6.47, 204.11 2.83, 201.17 0.27" stroke="#ced4da" stroke-width="0.5" fill="none"></path><path d="M18.09 0 C66.9 0, 115.71 0, 195.9 0 M18.09 0 C72.63 0, 127.16 0, 195.9 0 M195.9 0 C207.96 0, 213.99 6.03, 213.99 18.09 M195.9 0 C207.96 0, 213.99 6.03, 213.99 18.09 M213.99 18.09 C213.99 28.44, 213.99 38.79, 213.99 54.27 M213.99 18.09 C213.99 32.08, 213.99 46.06, 213.99 54.27 M213.99 54.27 C213.99 66.33, 207.96 72.36, 195.9 72.36 M213.99 54.27 C213.99 66.33, 207.96 72.36, 195.9 72.36 M195.9 72.36 C157.91 72.36, 119.91 72.36, 18.09 72.36 M195.9 72.36 C157.22 72.36, 118.54 72.36, 18.09 72.36 M18.09 72.36 C6.03 72.36, 0 66.33, 0 54.27 M18.09 72.36 C6.03 72.36, 0 66.33, 0 54.27 M0 54.27 C0 41.34, 0 28.41, 0 18.09 M0 54.27 C0 46.46, 0 38.66, 0 18.09 M0 18.09 C0 6.03, 6.03 0, 18.09 0 M0 18.09 C0 6.03, 6.03 0, 18.09 0" stroke="#ced4da" stroke-width="1" fill="none"></path></g><g transform="translate(90.21555519801404 101.48969091624406) rotate(0 42 17.5)"><text x="42" y="26.712" font-family="Nunito, Segoe UI Emoji" font-size="28px" fill="#1971c2" text-anchor="middle" style="white-space: pre;" direction="ltr" dominant-baseline="alphabetic">信的人</text></g><g stroke-linecap="round"><g transform="translate(264.6069340512458 118.63022975485472) rotate(0 22.26061559090857 0)"><path d="M0 0 C11.43 0, 22.86 0, 44.52 0 M0 0 C13.7 0, 27.41 0, 44.52 0" stroke="#1971c2" stroke-width="2" fill="none"></path></g><g transform="translate(264.6069340512458 118.63022975485472) rotate(0 22.26061559090857 0)"><path d="M44.52 0 L30.93 6.34 L30.93 -6.34 L44.52 0" stroke="none" stroke-width="0" fill="#1971c2" fill-rule="evenodd"></path><path d="M44.52 0 C41.03 1.63, 37.54 3.26, 30.93 6.34 M44.52 0 C40.34 1.95, 36.15 3.9, 30.93 6.34 M30.93 6.34 C30.93 1.83, 30.93 -2.68, 30.93 -6.34 M30.93 6.34 C30.93 3.1, 30.93 -0.14, 30.93 -6.34 M30.93 -6.34 C34.66 -4.6, 38.4 -2.85, 44.52 0 M30.93 -6.34 C35.92 -4.01, 40.9 -1.69, 44.52 0 M44.52 0 C44.52 0, 44.52 0, 44.52 0 M44.52 0 C44.52 0, 44.52 0, 44.52 0" stroke="#1971c2" stroke-width="2" fill="none"></path></g></g><mask></mask><g stroke-linecap="round"><g transform="translate(264.6069337346922 209.43989654223827) rotate(0 22.26061559090857 0)"><path d="M0 0 C12.89 0, 25.77 0, 44.52 0 M0 0 C15.75 0, 31.5 0, 44.52 0" stroke="#c2255c" stroke-width="2" fill="none"></path></g><g transform="translate(264.6069337346922 209.43989654223827) rotate(0 22.26061559090857 0)"><path d="M44.52 0 L30.93 6.34 L30.93 -6.34 L44.52 0" stroke="none" stroke-width="0" fill="#c2255c" fill-rule="evenodd"></path><path d="M44.52 0 C40.59 1.83, 36.65 3.67, 30.93 6.34 M44.52 0 C39.71 2.24, 34.9 4.49, 30.93 6.34 M30.93 6.34 C30.93 2.91, 30.93 -0.53, 30.93 -6.34 M30.93 6.34 C30.93 1.34, 30.93 -3.66, 30.93 -6.34 M30.93 -6.34 C34.9 -4.48, 38.88 -2.63, 44.52 0 M30.93 -6.34 C33.98 -4.92, 37.03 -3.49, 44.52 0 M44.52 0 C44.52 0, 44.52 0, 44.52 0 M44.52 0 C44.52 0, 44.52 0, 44.52 0" stroke="#c2255c" stroke-width="2" fill="none"></path></g></g><mask></mask><g stroke-linecap="round"><g transform="translate(574.1616202922369 118.63022990097608) rotate(0 22.26061559090857 0)"><path d="M0 0 C14.68 0, 29.36 0, 44.52 0 M0 0 C16.83 0, 33.66 0, 44.52 0" stroke="#1971c2" stroke-width="2" fill="none"></path></g><g transform="translate(574.1616202922369 118.63022990097608) rotate(0 22.26061559090857 0)"><path d="M44.52 0 L30.93 6.34 L30.93 -6.34 L44.52 0" stroke="none" stroke-width="0" fill="#1971c2" fill-rule="evenodd"></path><path d="M44.52 0 C40.04 2.09, 35.56 4.18, 30.93 6.34 M44.52 0 C39.38 2.4, 34.24 4.79, 30.93 6.34 M30.93 6.34 C30.93 3.75, 30.93 1.17, 30.93 -6.34 M30.93 6.34 C30.93 3.55, 30.93 0.77, 30.93 -6.34 M30.93 -6.34 C35.01 -4.44, 39.09 -2.53, 44.52 0 M30.93 -6.34 C34.9 -4.49, 38.87 -2.63, 44.52 0 M44.52 0 C44.52 0, 44.52 0, 44.52 0 M44.52 0 C44.52 0, 44.52 0, 44.52 0" stroke="#1971c2" stroke-width="2" fill="none"></path></g></g><mask></mask><g stroke-linecap="round"><g transform="translate(574.1616199756834 209.43989668835962) rotate(0 22.26061559090857 0)"><path d="M0 0 C14.86 0, 29.71 0, 44.52 0 M0 0 C13.1 0, 26.21 0, 44.52 0" stroke="#c2255c" stroke-width="2" fill="none"></path></g><g transform="translate(574.1616199756834 209.43989668835962) rotate(0 22.26061559090857 0)"><path d="M44.52 0 L30.93 6.34 L30.93 -6.34 L44.52 0" stroke="none" stroke-width="0" fill="#c2255c" fill-rule="evenodd"></path><path d="M44.52 0 C39.99 2.12, 35.45 4.23, 30.93 6.34 M44.52 0 C40.52 1.87, 36.52 3.73, 30.93 6.34 M30.93 6.34 C30.93 3.03, 30.93 -0.28, 30.93 -6.34 M30.93 6.34 C30.93 2.02, 30.93 -2.3, 30.93 -6.34 M30.93 -6.34 C35.53 -4.19, 40.13 -2.05, 44.52 0 M30.93 -6.34 C35.25 -4.32, 39.58 -2.31, 44.52 0 M44.52 0 C44.52 0, 44.52 0, 44.52 0 M44.52 0 C44.52 0, 44.52 0, 44.52 0" stroke="#c2255c" stroke-width="2" fill="none"></path></g></g><mask></mask><g transform="translate(568.42223634275 10.000000109389305) rotate(0 28 17.5)"><text x="0" y="26.712" font-family="Nunito, Segoe UI Emoji" font-size="28px" fill="#343a40" text-anchor="start" style="white-space: pre;" direction="ltr" dominant-baseline="alphabetic">审判</text></g><g transform="translate(723.261226172347 283.22686051992014) rotate(0 28 17.5)"><text x="0" y="26.712" font-family="Nunito, Segoe UI Emoji" font-size="28px" fill="#343a40" text-anchor="start" style="white-space: pre;" direction="ltr" dominant-baseline="alphabetic">永恒</text></g></svg>